%TF.GenerationSoftware,KiCad,Pcbnew,(6.0.10-0)*%
%TF.CreationDate,2022-12-27T02:05:37+01:00*%
%TF.ProjectId,BMS_PDB,424d535f-5044-4422-9e6b-696361645f70,rev?*%
%TF.SameCoordinates,Original*%
%TF.FileFunction,Copper,L2,Bot*%
%TF.FilePolarity,Positive*%
%FSLAX46Y46*%
G04 Gerber Fmt 4.6, Leading zero omitted, Abs format (unit mm)*
G04 Created by KiCad (PCBNEW (6.0.10-0)) date 2022-12-27 02:05:37*
%MOMM*%
%LPD*%
G01*
G04 APERTURE LIST*
G04 Aperture macros list*
%AMRoundRect*
0 Rectangle with rounded corners*
0 $1 Rounding radius*
0 $2 $3 $4 $5 $6 $7 $8 $9 X,Y pos of 4 corners*
0 Add a 4 corners polygon primitive as box body*
4,1,4,$2,$3,$4,$5,$6,$7,$8,$9,$2,$3,0*
0 Add four circle primitives for the rounded corners*
1,1,$1+$1,$2,$3*
1,1,$1+$1,$4,$5*
1,1,$1+$1,$6,$7*
1,1,$1+$1,$8,$9*
0 Add four rect primitives between the rounded corners*
20,1,$1+$1,$2,$3,$4,$5,0*
20,1,$1+$1,$4,$5,$6,$7,0*
20,1,$1+$1,$6,$7,$8,$9,0*
20,1,$1+$1,$8,$9,$2,$3,0*%
G04 Aperture macros list end*
%TA.AperFunction,ComponentPad*%
%ADD10RoundRect,0.250000X-0.725000X0.600000X-0.725000X-0.600000X0.725000X-0.600000X0.725000X0.600000X0*%
%TD*%
%TA.AperFunction,ComponentPad*%
%ADD11O,1.950000X1.700000*%
%TD*%
%TA.AperFunction,ComponentPad*%
%ADD12C,3.000000*%
%TD*%
%TA.AperFunction,ComponentPad*%
%ADD13C,4.400000*%
%TD*%
%TA.AperFunction,ConnectorPad*%
%ADD14C,8.000000*%
%TD*%
%TA.AperFunction,ComponentPad*%
%ADD15RoundRect,0.250000X-0.600000X-0.725000X0.600000X-0.725000X0.600000X0.725000X-0.600000X0.725000X0*%
%TD*%
%TA.AperFunction,ComponentPad*%
%ADD16O,1.700000X1.950000*%
%TD*%
%TA.AperFunction,ComponentPad*%
%ADD17R,3.800000X3.800000*%
%TD*%
%TA.AperFunction,ComponentPad*%
%ADD18C,3.800000*%
%TD*%
%TA.AperFunction,ComponentPad*%
%ADD19RoundRect,1.500000X-1.500000X1.500000X-1.500000X-1.500000X1.500000X-1.500000X1.500000X1.500000X0*%
%TD*%
%TA.AperFunction,ComponentPad*%
%ADD20C,6.000000*%
%TD*%
%TA.AperFunction,HeatsinkPad*%
%ADD21C,0.475000*%
%TD*%
G04 APERTURE END LIST*
D10*
%TO.P,J9,1,Pin_1*%
%TO.N,+5V*%
X94000000Y-119000000D03*
D11*
%TO.P,J9,2,Pin_2*%
%TO.N,Net-(J10-Pad2)*%
X94000000Y-121500000D03*
%TO.P,J9,3,Pin_3*%
%TO.N,Net-(J10-Pad3)*%
X94000000Y-124000000D03*
%TO.P,J9,4,Pin_4*%
%TO.N,GND1*%
X94000000Y-126500000D03*
%TD*%
D12*
%TO.P,F2,1*%
%TO.N,GND*%
X207000000Y-116000000D03*
%TO.P,F2,2*%
%TO.N,Net-(F2-Pad2)*%
X184500000Y-116000000D03*
%TD*%
D13*
%TO.P,J1,1,Pin_1*%
%TO.N,GND*%
X207000000Y-126000000D03*
D14*
X207000000Y-126000000D03*
%TD*%
D15*
%TO.P,J10,1,Pin_1*%
%TO.N,+5V*%
X143000000Y-121000000D03*
D16*
%TO.P,J10,2,Pin_2*%
%TO.N,Net-(J10-Pad2)*%
X145500000Y-121000000D03*
%TO.P,J10,3,Pin_3*%
%TO.N,Net-(J10-Pad3)*%
X148000000Y-121000000D03*
%TO.P,J10,4,Pin_4*%
%TO.N,GND1*%
X150500000Y-121000000D03*
%TD*%
D12*
%TO.P,F3,1*%
%TO.N,GND*%
X207000000Y-96000000D03*
%TO.P,F3,2*%
%TO.N,Net-(F3-Pad2)*%
X184500000Y-96000000D03*
%TD*%
D17*
%TO.P,J6,1,Pin_1*%
%TO.N,Net-(F4-Pad2)*%
X177500000Y-86000000D03*
D18*
%TO.P,J6,2,Pin_2*%
%TO.N,+24V*%
X172500000Y-86000000D03*
%TD*%
D17*
%TO.P,J4,1,Pin_1*%
%TO.N,Net-(F2-Pad2)*%
X177500000Y-116000000D03*
D18*
%TO.P,J4,2,Pin_2*%
%TO.N,+24V*%
X172500000Y-116000000D03*
%TD*%
D17*
%TO.P,J5,1,Pin_1*%
%TO.N,Net-(F3-Pad2)*%
X177500000Y-96000000D03*
D18*
%TO.P,J5,2,Pin_2*%
%TO.N,+24V*%
X172500000Y-96000000D03*
%TD*%
D19*
%TO.P,J8,1,Pin_1*%
%TO.N,Net-(J2-Pad1)*%
X161000000Y-84000000D03*
D20*
%TO.P,J8,2,Pin_2*%
%TO.N,+24V*%
X161000000Y-91200000D03*
%TD*%
D14*
%TO.P,J2,1,Pin_1*%
%TO.N,Net-(J2-Pad1)*%
X161000000Y-74930000D03*
D13*
X161000000Y-74930000D03*
%TD*%
D21*
%TO.P,U1,39,GND*%
%TO.N,GND1*%
X95590000Y-100417500D03*
X94827500Y-102705000D03*
X96352500Y-99655000D03*
X97115000Y-101942500D03*
X96352500Y-101180000D03*
X94827500Y-99655000D03*
X94065000Y-101942500D03*
X97115000Y-100417500D03*
X94827500Y-101180000D03*
X94065000Y-100417500D03*
X96352500Y-102705000D03*
X95590000Y-101942500D03*
%TD*%
D12*
%TO.P,F1,1*%
%TO.N,GND*%
X207000000Y-106000000D03*
%TO.P,F1,2*%
%TO.N,Net-(F1-Pad2)*%
X184500000Y-106000000D03*
%TD*%
%TO.P,F5,1*%
%TO.N,GND*%
X207000000Y-76000000D03*
%TO.P,F5,2*%
%TO.N,Net-(F5-Pad2)*%
X184500000Y-76000000D03*
%TD*%
D17*
%TO.P,J3,1,Pin_1*%
%TO.N,Net-(F1-Pad2)*%
X177500000Y-106000000D03*
D18*
%TO.P,J3,2,Pin_2*%
%TO.N,+24V*%
X172500000Y-106000000D03*
%TD*%
D12*
%TO.P,F4,1*%
%TO.N,GND*%
X207000000Y-86000000D03*
%TO.P,F4,2*%
%TO.N,Net-(F4-Pad2)*%
X184500000Y-86000000D03*
%TD*%
D17*
%TO.P,J7,1,Pin_1*%
%TO.N,Net-(F5-Pad2)*%
X177500000Y-76000000D03*
D18*
%TO.P,J7,2,Pin_2*%
%TO.N,+24V*%
X172500000Y-76000000D03*
%TD*%
%TA.AperFunction,Conductor*%
%TO.N,GND1*%
G36*
X119778945Y-71044215D02*
G01*
X119793771Y-71046524D01*
X119793778Y-71046524D01*
X119802646Y-71047905D01*
X119811550Y-71046741D01*
X119811551Y-71046741D01*
X119817900Y-71045911D01*
X119843222Y-71045168D01*
X120012197Y-71057255D01*
X120029988Y-71059814D01*
X120030031Y-71059823D01*
X120220312Y-71101219D01*
X120237562Y-71106284D01*
X120420060Y-71174356D01*
X120436411Y-71181824D01*
X120607367Y-71275175D01*
X120622482Y-71284889D01*
X120778408Y-71401616D01*
X120778412Y-71401619D01*
X120791996Y-71413389D01*
X120929734Y-71551130D01*
X120941495Y-71564703D01*
X121000162Y-71643074D01*
X121058227Y-71720641D01*
X121067946Y-71735765D01*
X121161289Y-71906715D01*
X121168757Y-71923068D01*
X121236824Y-72105568D01*
X121241889Y-72122817D01*
X121283291Y-72313147D01*
X121285849Y-72330938D01*
X121297440Y-72493007D01*
X121296729Y-72510090D01*
X121296731Y-72510090D01*
X121296621Y-72519060D01*
X121295239Y-72527934D01*
X121296403Y-72536837D01*
X121296403Y-72536844D01*
X121299366Y-72559504D01*
X121300430Y-72575840D01*
X121300430Y-73480968D01*
X121298684Y-73501872D01*
X121295354Y-73521666D01*
X121295201Y-73534218D01*
X121295890Y-73539029D01*
X121296088Y-73542064D01*
X121296551Y-73546618D01*
X121314127Y-73837140D01*
X121314811Y-73840873D01*
X121314812Y-73840880D01*
X121356190Y-74066659D01*
X121368832Y-74135644D01*
X121369961Y-74139266D01*
X121369963Y-74139273D01*
X121457987Y-74421747D01*
X121457990Y-74421754D01*
X121459119Y-74425378D01*
X121460679Y-74428844D01*
X121460681Y-74428848D01*
X121582102Y-74698627D01*
X121583672Y-74702116D01*
X121740674Y-74961824D01*
X121743017Y-74964814D01*
X121743022Y-74964821D01*
X121893105Y-75156383D01*
X121927836Y-75200713D01*
X122142428Y-75415300D01*
X122381322Y-75602457D01*
X122641033Y-75759453D01*
X122917774Y-75884000D01*
X122921414Y-75885134D01*
X122921416Y-75885135D01*
X123089447Y-75937493D01*
X123207510Y-75974281D01*
X123211266Y-75974969D01*
X123211269Y-75974970D01*
X123306593Y-75992437D01*
X123506015Y-76028980D01*
X123509814Y-76029210D01*
X123509816Y-76029210D01*
X123575930Y-76033208D01*
X123778103Y-76045434D01*
X123791396Y-76046950D01*
X123796386Y-76047790D01*
X123802941Y-76047870D01*
X123804079Y-76047884D01*
X123804082Y-76047884D01*
X123808938Y-76047943D01*
X123813746Y-76047254D01*
X123813752Y-76047254D01*
X123836559Y-76043987D01*
X123854423Y-76042714D01*
X136755688Y-76042714D01*
X136776591Y-76044460D01*
X136796386Y-76047790D01*
X136802514Y-76047865D01*
X136804071Y-76047884D01*
X136804075Y-76047884D01*
X136808938Y-76047943D01*
X136813756Y-76047253D01*
X136816399Y-76047081D01*
X136821675Y-76046545D01*
X136927715Y-76040129D01*
X137111856Y-76028988D01*
X137265201Y-76000884D01*
X137406609Y-75974968D01*
X137406613Y-75974967D01*
X137410356Y-75974281D01*
X137528410Y-75937493D01*
X137696455Y-75885127D01*
X137696462Y-75885124D01*
X137700086Y-75883995D01*
X137976821Y-75759443D01*
X138236526Y-75602444D01*
X138269801Y-75576375D01*
X138472417Y-75417633D01*
X138475413Y-75415286D01*
X138689999Y-75200698D01*
X138827089Y-75025714D01*
X138874801Y-74964814D01*
X138874803Y-74964811D01*
X138877155Y-74961809D01*
X139026130Y-74715375D01*
X139032182Y-74705364D01*
X139032184Y-74705360D01*
X139034153Y-74702103D01*
X139158702Y-74425367D01*
X139248986Y-74135637D01*
X139282197Y-73954420D01*
X139303005Y-73840876D01*
X139303006Y-73840870D01*
X139303690Y-73837136D01*
X139303919Y-73833346D01*
X139303920Y-73833340D01*
X139320150Y-73565059D01*
X139321664Y-73551776D01*
X139321699Y-73551570D01*
X139321700Y-73551564D01*
X139322506Y-73546770D01*
X139322659Y-73534218D01*
X139318702Y-73506585D01*
X139317430Y-73488725D01*
X139317430Y-72583577D01*
X139318930Y-72564192D01*
X139321240Y-72549359D01*
X139321240Y-72549355D01*
X139322621Y-72540486D01*
X139320626Y-72525230D01*
X139319883Y-72499906D01*
X139331967Y-72330941D01*
X139334525Y-72313146D01*
X139375929Y-72122813D01*
X139380994Y-72105564D01*
X139398575Y-72058426D01*
X139449064Y-71923059D01*
X139456526Y-71906720D01*
X139549878Y-71735757D01*
X139559598Y-71720633D01*
X139676323Y-71564707D01*
X139688096Y-71551120D01*
X139825828Y-71413389D01*
X139839415Y-71401616D01*
X139995347Y-71284889D01*
X140010471Y-71275170D01*
X140181421Y-71181826D01*
X140197773Y-71174358D01*
X140197779Y-71174356D01*
X140353243Y-71116372D01*
X140380275Y-71106290D01*
X140397525Y-71101225D01*
X140549138Y-71068245D01*
X140587858Y-71059823D01*
X140605651Y-71057265D01*
X140767596Y-71045685D01*
X140785228Y-71046418D01*
X140793770Y-71046523D01*
X140802646Y-71047905D01*
X140811549Y-71046741D01*
X140834218Y-71043777D01*
X140850553Y-71042714D01*
X153874000Y-71042714D01*
X153942121Y-71062716D01*
X153988614Y-71116372D01*
X154000000Y-71168714D01*
X154000000Y-124899714D01*
X153979998Y-124967835D01*
X153926342Y-125014328D01*
X153874000Y-125025714D01*
X137362182Y-125025714D01*
X137341275Y-125023967D01*
X137321490Y-125020638D01*
X137314898Y-125020558D01*
X137313796Y-125020544D01*
X137313793Y-125020544D01*
X137308938Y-125020485D01*
X137304125Y-125021174D01*
X137301923Y-125021318D01*
X137295805Y-125021940D01*
X137233392Y-125025714D01*
X137009816Y-125039234D01*
X137009811Y-125039235D01*
X137006018Y-125039464D01*
X137002275Y-125040150D01*
X137002274Y-125040150D01*
X136711263Y-125093476D01*
X136711260Y-125093477D01*
X136707515Y-125094163D01*
X136703882Y-125095295D01*
X136703878Y-125095296D01*
X136545205Y-125144739D01*
X136417782Y-125184444D01*
X136414311Y-125186006D01*
X136414306Y-125186008D01*
X136247695Y-125260992D01*
X136141043Y-125308991D01*
X135881336Y-125465987D01*
X135642445Y-125653143D01*
X135427857Y-125867730D01*
X135425515Y-125870720D01*
X135425510Y-125870725D01*
X135337952Y-125982484D01*
X135240698Y-126106619D01*
X135238732Y-126109871D01*
X135238730Y-126109874D01*
X135234972Y-126116091D01*
X135083700Y-126366326D01*
X135049287Y-126442788D01*
X134972710Y-126612937D01*
X134959151Y-126643063D01*
X134958018Y-126646699D01*
X134883319Y-126886421D01*
X134868868Y-126932795D01*
X134814166Y-127231298D01*
X134813937Y-127235087D01*
X134813936Y-127235094D01*
X134797711Y-127503370D01*
X134796194Y-127516671D01*
X134795354Y-127521666D01*
X134795201Y-127534218D01*
X134795891Y-127539034D01*
X134799157Y-127561840D01*
X134800430Y-127579703D01*
X134800430Y-128484844D01*
X134798930Y-128504231D01*
X134795239Y-128527934D01*
X134797234Y-128543191D01*
X134797977Y-128568515D01*
X134785890Y-128737489D01*
X134783332Y-128755279D01*
X134741928Y-128945606D01*
X134736864Y-128962855D01*
X134668791Y-129145364D01*
X134661323Y-129161716D01*
X134567974Y-129332673D01*
X134558254Y-129347797D01*
X134441527Y-129503726D01*
X134429755Y-129517312D01*
X134292024Y-129655044D01*
X134278438Y-129666817D01*
X134122502Y-129783551D01*
X134107379Y-129793269D01*
X133936423Y-129886620D01*
X133920076Y-129894086D01*
X133737565Y-129962161D01*
X133720329Y-129967222D01*
X133529991Y-130008630D01*
X133512201Y-130011189D01*
X133350386Y-130022764D01*
X133332065Y-130022002D01*
X133324073Y-130021905D01*
X133315198Y-130020523D01*
X133283641Y-130024650D01*
X133267302Y-130025714D01*
X88126000Y-130025714D01*
X88057879Y-130005712D01*
X88011386Y-129952056D01*
X88000000Y-129899714D01*
X88000000Y-126768580D01*
X92543752Y-126768580D01*
X92568477Y-126886421D01*
X92571537Y-126896617D01*
X92652263Y-127101029D01*
X92656994Y-127110561D01*
X92771016Y-127298462D01*
X92777280Y-127307052D01*
X92921327Y-127473052D01*
X92928958Y-127480472D01*
X93098911Y-127619826D01*
X93107678Y-127625850D01*
X93298682Y-127734576D01*
X93308346Y-127739041D01*
X93514941Y-127814031D01*
X93525208Y-127816802D01*
X93728174Y-127853504D01*
X93741414Y-127852085D01*
X93746000Y-127837450D01*
X93746000Y-127833849D01*
X94254000Y-127833849D01*
X94258310Y-127848527D01*
X94270193Y-127850590D01*
X94349325Y-127843876D01*
X94359797Y-127842086D01*
X94572535Y-127786870D01*
X94582575Y-127783335D01*
X94782970Y-127693063D01*
X94792256Y-127687894D01*
X94974575Y-127565150D01*
X94982870Y-127558481D01*
X95141900Y-127406772D01*
X95148941Y-127398814D01*
X95280141Y-127222475D01*
X95285745Y-127213438D01*
X95385357Y-127017516D01*
X95389357Y-127007665D01*
X95454534Y-126797760D01*
X95456817Y-126787376D01*
X95458861Y-126771957D01*
X95456665Y-126757793D01*
X95443478Y-126754000D01*
X94272115Y-126754000D01*
X94256876Y-126758475D01*
X94255671Y-126759865D01*
X94254000Y-126767548D01*
X94254000Y-127833849D01*
X93746000Y-127833849D01*
X93746000Y-126772115D01*
X93741525Y-126756876D01*
X93740135Y-126755671D01*
X93732452Y-126754000D01*
X92558808Y-126754000D01*
X92545277Y-126757973D01*
X92543752Y-126768580D01*
X88000000Y-126768580D01*
X88000000Y-123935774D01*
X92513102Y-123935774D01*
X92521751Y-124166158D01*
X92569093Y-124391791D01*
X92571051Y-124396750D01*
X92571052Y-124396752D01*
X92608402Y-124491326D01*
X92653776Y-124606221D01*
X92773377Y-124803317D01*
X92776874Y-124807347D01*
X92863438Y-124907103D01*
X92924477Y-124977445D01*
X92966030Y-125011516D01*
X93098627Y-125120240D01*
X93098633Y-125120244D01*
X93102755Y-125123624D01*
X93107398Y-125126267D01*
X93134735Y-125141829D01*
X93184041Y-125192912D01*
X93197902Y-125262542D01*
X93171918Y-125328613D01*
X93142768Y-125355851D01*
X93025422Y-125434852D01*
X93017130Y-125441519D01*
X92858100Y-125593228D01*
X92851059Y-125601186D01*
X92719859Y-125777525D01*
X92714255Y-125786562D01*
X92614643Y-125982484D01*
X92610643Y-125992335D01*
X92545466Y-126202240D01*
X92543183Y-126212624D01*
X92541139Y-126228043D01*
X92543335Y-126242207D01*
X92556522Y-126246000D01*
X95441192Y-126246000D01*
X95454723Y-126242027D01*
X95456248Y-126231420D01*
X95431523Y-126113579D01*
X95428463Y-126103383D01*
X95347737Y-125898971D01*
X95343006Y-125889439D01*
X95228984Y-125701538D01*
X95222720Y-125692948D01*
X95078673Y-125526948D01*
X95071042Y-125519528D01*
X94901089Y-125380174D01*
X94892326Y-125374152D01*
X94865289Y-125358762D01*
X94815982Y-125307680D01*
X94802120Y-125238049D01*
X94828103Y-125171978D01*
X94857253Y-125144739D01*
X94933396Y-125093476D01*
X94979319Y-125062559D01*
X94999893Y-125042933D01*
X95142278Y-124907103D01*
X95146135Y-124903424D01*
X95283754Y-124718458D01*
X95388240Y-124512949D01*
X95424321Y-124396752D01*
X95455024Y-124297871D01*
X95456607Y-124292773D01*
X95462149Y-124250956D01*
X95486198Y-124069511D01*
X95486198Y-124069506D01*
X95486898Y-124064226D01*
X95478249Y-123833842D01*
X95430907Y-123608209D01*
X95428948Y-123603248D01*
X95348185Y-123398744D01*
X95348184Y-123398742D01*
X95346224Y-123393779D01*
X95226623Y-123196683D01*
X95139755Y-123096576D01*
X95079023Y-123026588D01*
X95079021Y-123026586D01*
X95075523Y-123022555D01*
X95033970Y-122988484D01*
X94901373Y-122879760D01*
X94901367Y-122879756D01*
X94897245Y-122876376D01*
X94865750Y-122858448D01*
X94816445Y-122807368D01*
X94802583Y-122737738D01*
X94828566Y-122671667D01*
X94857716Y-122644427D01*
X94893642Y-122620240D01*
X94979319Y-122562559D01*
X95146135Y-122403424D01*
X95156255Y-122389823D01*
X95280568Y-122222740D01*
X95283754Y-122218458D01*
X95294002Y-122198303D01*
X95358704Y-122071042D01*
X95388240Y-122012949D01*
X95394204Y-121993744D01*
X95455024Y-121797871D01*
X95456607Y-121792773D01*
X95458910Y-121775400D01*
X141641500Y-121775400D01*
X141641837Y-121778646D01*
X141641837Y-121778650D01*
X141650875Y-121865752D01*
X141652474Y-121881166D01*
X141654655Y-121887702D01*
X141654655Y-121887704D01*
X141686405Y-121982870D01*
X141708450Y-122048946D01*
X141801522Y-122199348D01*
X141926697Y-122324305D01*
X141932927Y-122328145D01*
X141932928Y-122328146D01*
X142070090Y-122412694D01*
X142077262Y-122417115D01*
X142112938Y-122428948D01*
X142238611Y-122470632D01*
X142238613Y-122470632D01*
X142245139Y-122472797D01*
X142251975Y-122473497D01*
X142251978Y-122473498D01*
X142287663Y-122477154D01*
X142349600Y-122483500D01*
X143650400Y-122483500D01*
X143653646Y-122483163D01*
X143653650Y-122483163D01*
X143749308Y-122473238D01*
X143749312Y-122473237D01*
X143756166Y-122472526D01*
X143762702Y-122470345D01*
X143762704Y-122470345D01*
X143894806Y-122426272D01*
X143923946Y-122416550D01*
X144074348Y-122323478D01*
X144199305Y-122198303D01*
X144289081Y-122052660D01*
X144341852Y-122005168D01*
X144411924Y-121993744D01*
X144477048Y-122022018D01*
X144487510Y-122031805D01*
X144529215Y-122075523D01*
X144596576Y-122146135D01*
X144781542Y-122283754D01*
X144786293Y-122286170D01*
X144786297Y-122286172D01*
X144827946Y-122307347D01*
X144987051Y-122388240D01*
X144992145Y-122389822D01*
X144992148Y-122389823D01*
X145157583Y-122441192D01*
X145207227Y-122456607D01*
X145212516Y-122457308D01*
X145430489Y-122486198D01*
X145430494Y-122486198D01*
X145435774Y-122486898D01*
X145441103Y-122486698D01*
X145441105Y-122486698D01*
X145550966Y-122482574D01*
X145666158Y-122478249D01*
X145688802Y-122473498D01*
X145886572Y-122432002D01*
X145891791Y-122430907D01*
X145896750Y-122428949D01*
X145896752Y-122428948D01*
X146101256Y-122348185D01*
X146101258Y-122348184D01*
X146106221Y-122346224D01*
X146111525Y-122343006D01*
X146298757Y-122229390D01*
X146298756Y-122229390D01*
X146303317Y-122226623D01*
X146343134Y-122192072D01*
X146473412Y-122079023D01*
X146473414Y-122079021D01*
X146477445Y-122075523D01*
X146544500Y-121993744D01*
X146620240Y-121901373D01*
X146620244Y-121901367D01*
X146623624Y-121897245D01*
X146641552Y-121865750D01*
X146692632Y-121816445D01*
X146762262Y-121802583D01*
X146828333Y-121828566D01*
X146855573Y-121857716D01*
X146937441Y-121979319D01*
X146941120Y-121983176D01*
X146941122Y-121983178D01*
X146978174Y-122022018D01*
X147096576Y-122146135D01*
X147281542Y-122283754D01*
X147286293Y-122286170D01*
X147286297Y-122286172D01*
X147327946Y-122307347D01*
X147487051Y-122388240D01*
X147492145Y-122389822D01*
X147492148Y-122389823D01*
X147657583Y-122441192D01*
X147707227Y-122456607D01*
X147712516Y-122457308D01*
X147930489Y-122486198D01*
X147930494Y-122486198D01*
X147935774Y-122486898D01*
X147941103Y-122486698D01*
X147941105Y-122486698D01*
X148050966Y-122482574D01*
X148166158Y-122478249D01*
X148188802Y-122473498D01*
X148386572Y-122432002D01*
X148391791Y-122430907D01*
X148396750Y-122428949D01*
X148396752Y-122428948D01*
X148601256Y-122348185D01*
X148601258Y-122348184D01*
X148606221Y-122346224D01*
X148611525Y-122343006D01*
X148798757Y-122229390D01*
X148798756Y-122229390D01*
X148803317Y-122226623D01*
X148843134Y-122192072D01*
X148973412Y-122079023D01*
X148973414Y-122079021D01*
X148977445Y-122075523D01*
X149044500Y-121993744D01*
X149120240Y-121901373D01*
X149120244Y-121901367D01*
X149123624Y-121897245D01*
X149129055Y-121887704D01*
X149141829Y-121865265D01*
X149192912Y-121815959D01*
X149262542Y-121802098D01*
X149328613Y-121828082D01*
X149355851Y-121857232D01*
X149434852Y-121974578D01*
X149441519Y-121982870D01*
X149593228Y-122141900D01*
X149601186Y-122148941D01*
X149777525Y-122280141D01*
X149786562Y-122285745D01*
X149982484Y-122385357D01*
X149992335Y-122389357D01*
X150202240Y-122454534D01*
X150212624Y-122456817D01*
X150228043Y-122458861D01*
X150242207Y-122456665D01*
X150246000Y-122443478D01*
X150246000Y-122441192D01*
X150754000Y-122441192D01*
X150757973Y-122454723D01*
X150768580Y-122456248D01*
X150886421Y-122431523D01*
X150896617Y-122428463D01*
X151101029Y-122347737D01*
X151110561Y-122343006D01*
X151298462Y-122228984D01*
X151307052Y-122222720D01*
X151473052Y-122078673D01*
X151480472Y-122071042D01*
X151619826Y-121901089D01*
X151625850Y-121892322D01*
X151734576Y-121701318D01*
X151739041Y-121691654D01*
X151814031Y-121485059D01*
X151816802Y-121474792D01*
X151853504Y-121271826D01*
X151852085Y-121258586D01*
X151837450Y-121254000D01*
X150772115Y-121254000D01*
X150756876Y-121258475D01*
X150755671Y-121259865D01*
X150754000Y-121267548D01*
X150754000Y-122441192D01*
X150246000Y-122441192D01*
X150246000Y-120727885D01*
X150754000Y-120727885D01*
X150758475Y-120743124D01*
X150759865Y-120744329D01*
X150767548Y-120746000D01*
X151833849Y-120746000D01*
X151848527Y-120741690D01*
X151850590Y-120729807D01*
X151843876Y-120650675D01*
X151842086Y-120640203D01*
X151786870Y-120427465D01*
X151783335Y-120417425D01*
X151693063Y-120217030D01*
X151687894Y-120207744D01*
X151565150Y-120025425D01*
X151558481Y-120017130D01*
X151406772Y-119858100D01*
X151398814Y-119851059D01*
X151222475Y-119719859D01*
X151213438Y-119714255D01*
X151017516Y-119614643D01*
X151007665Y-119610643D01*
X150797760Y-119545466D01*
X150787376Y-119543183D01*
X150771957Y-119541139D01*
X150757793Y-119543335D01*
X150754000Y-119556522D01*
X150754000Y-120727885D01*
X150246000Y-120727885D01*
X150246000Y-119558808D01*
X150242027Y-119545277D01*
X150231420Y-119543752D01*
X150113579Y-119568477D01*
X150103383Y-119571537D01*
X149898971Y-119652263D01*
X149889439Y-119656994D01*
X149701538Y-119771016D01*
X149692948Y-119777280D01*
X149526948Y-119921327D01*
X149519528Y-119928958D01*
X149380174Y-120098911D01*
X149374152Y-120107674D01*
X149358762Y-120134711D01*
X149307680Y-120184018D01*
X149238049Y-120197880D01*
X149171978Y-120171897D01*
X149144739Y-120142747D01*
X149093791Y-120067072D01*
X149062559Y-120020681D01*
X149003918Y-119959209D01*
X148974725Y-119928608D01*
X148903424Y-119853865D01*
X148718458Y-119716246D01*
X148713707Y-119713830D01*
X148713703Y-119713828D01*
X148595588Y-119653776D01*
X148512949Y-119611760D01*
X148507855Y-119610178D01*
X148507852Y-119610177D01*
X148297871Y-119544976D01*
X148292773Y-119543393D01*
X148287484Y-119542692D01*
X148069511Y-119513802D01*
X148069506Y-119513802D01*
X148064226Y-119513102D01*
X148058897Y-119513302D01*
X148058895Y-119513302D01*
X147949034Y-119517427D01*
X147833842Y-119521751D01*
X147828623Y-119522846D01*
X147806566Y-119527474D01*
X147608209Y-119569093D01*
X147603250Y-119571051D01*
X147603248Y-119571052D01*
X147398744Y-119651815D01*
X147398742Y-119651816D01*
X147393779Y-119653776D01*
X147389220Y-119656543D01*
X147389217Y-119656544D01*
X147294113Y-119714255D01*
X147196683Y-119773377D01*
X147192653Y-119776874D01*
X147031174Y-119916998D01*
X147022555Y-119924477D01*
X147019168Y-119928608D01*
X146879760Y-120098627D01*
X146879756Y-120098633D01*
X146876376Y-120102755D01*
X146858448Y-120134250D01*
X146807368Y-120183555D01*
X146737738Y-120197417D01*
X146671667Y-120171434D01*
X146644427Y-120142284D01*
X146617814Y-120102755D01*
X146562559Y-120020681D01*
X146503918Y-119959209D01*
X146474725Y-119928608D01*
X146403424Y-119853865D01*
X146218458Y-119716246D01*
X146213707Y-119713830D01*
X146213703Y-119713828D01*
X146095588Y-119653776D01*
X146012949Y-119611760D01*
X146007855Y-119610178D01*
X146007852Y-119610177D01*
X145797871Y-119544976D01*
X145792773Y-119543393D01*
X145787484Y-119542692D01*
X145569511Y-119513802D01*
X145569506Y-119513802D01*
X145564226Y-119513102D01*
X145558897Y-119513302D01*
X145558895Y-119513302D01*
X145449034Y-119517427D01*
X145333842Y-119521751D01*
X145328623Y-119522846D01*
X145306566Y-119527474D01*
X145108209Y-119569093D01*
X145103250Y-119571051D01*
X145103248Y-119571052D01*
X144898744Y-119651815D01*
X144898742Y-119651816D01*
X144893779Y-119653776D01*
X144889220Y-119656543D01*
X144889217Y-119656544D01*
X144794113Y-119714255D01*
X144696683Y-119773377D01*
X144692653Y-119776874D01*
X144531174Y-119916998D01*
X144522555Y-119924477D01*
X144493330Y-119960120D01*
X144434671Y-120000114D01*
X144363701Y-120002046D01*
X144302952Y-119965302D01*
X144288752Y-119946532D01*
X144202332Y-119806880D01*
X144198478Y-119800652D01*
X144073303Y-119675695D01*
X144042965Y-119656994D01*
X143928968Y-119586725D01*
X143928966Y-119586724D01*
X143922738Y-119582885D01*
X143809353Y-119545277D01*
X143761389Y-119529368D01*
X143761387Y-119529368D01*
X143754861Y-119527203D01*
X143748025Y-119526503D01*
X143748022Y-119526502D01*
X143704969Y-119522091D01*
X143650400Y-119516500D01*
X142349600Y-119516500D01*
X142346354Y-119516837D01*
X142346350Y-119516837D01*
X142250692Y-119526762D01*
X142250688Y-119526763D01*
X142243834Y-119527474D01*
X142237298Y-119529655D01*
X142237296Y-119529655D01*
X142105194Y-119573728D01*
X142076054Y-119583450D01*
X141925652Y-119676522D01*
X141800695Y-119801697D01*
X141796855Y-119807927D01*
X141796854Y-119807928D01*
X141722244Y-119928968D01*
X141707885Y-119952262D01*
X141686472Y-120016822D01*
X141656432Y-120107390D01*
X141652203Y-120120139D01*
X141651503Y-120126975D01*
X141651502Y-120126978D01*
X141649338Y-120148102D01*
X141641500Y-120224600D01*
X141641500Y-121775400D01*
X95458910Y-121775400D01*
X95470009Y-121691654D01*
X95486198Y-121569511D01*
X95486198Y-121569506D01*
X95486898Y-121564226D01*
X95483541Y-121474792D01*
X95478449Y-121339173D01*
X95478249Y-121333842D01*
X95430907Y-121108209D01*
X95346224Y-120893779D01*
X95226623Y-120696683D01*
X95223126Y-120692653D01*
X95079023Y-120526588D01*
X95079021Y-120526586D01*
X95075523Y-120522555D01*
X95039880Y-120493330D01*
X94999886Y-120434671D01*
X94997954Y-120363701D01*
X95034698Y-120302952D01*
X95053468Y-120288752D01*
X95193120Y-120202332D01*
X95199348Y-120198478D01*
X95324305Y-120073303D01*
X95402448Y-119946532D01*
X95413275Y-119928968D01*
X95413276Y-119928966D01*
X95417115Y-119922738D01*
X95457609Y-119800652D01*
X95470632Y-119761389D01*
X95470632Y-119761387D01*
X95472797Y-119754861D01*
X95476754Y-119716246D01*
X95477909Y-119704969D01*
X95483500Y-119650400D01*
X95483500Y-118349600D01*
X95472526Y-118243834D01*
X95416550Y-118076054D01*
X95323478Y-117925652D01*
X95198303Y-117800695D01*
X95192072Y-117796854D01*
X95053968Y-117711725D01*
X95053966Y-117711724D01*
X95047738Y-117707885D01*
X94887254Y-117654655D01*
X94886389Y-117654368D01*
X94886387Y-117654368D01*
X94879861Y-117652203D01*
X94873025Y-117651503D01*
X94873022Y-117651502D01*
X94829969Y-117647091D01*
X94775400Y-117641500D01*
X93224600Y-117641500D01*
X93221354Y-117641837D01*
X93221350Y-117641837D01*
X93125692Y-117651762D01*
X93125688Y-117651763D01*
X93118834Y-117652474D01*
X93112298Y-117654655D01*
X93112296Y-117654655D01*
X92980194Y-117698728D01*
X92951054Y-117708450D01*
X92800652Y-117801522D01*
X92675695Y-117926697D01*
X92582885Y-118077262D01*
X92527203Y-118245139D01*
X92516500Y-118349600D01*
X92516500Y-119650400D01*
X92516837Y-119653646D01*
X92516837Y-119653650D01*
X92523663Y-119719432D01*
X92527474Y-119756166D01*
X92529655Y-119762702D01*
X92529655Y-119762704D01*
X92544743Y-119807928D01*
X92583450Y-119923946D01*
X92676522Y-120074348D01*
X92681704Y-120079521D01*
X92736990Y-120134711D01*
X92801697Y-120199305D01*
X92807927Y-120203145D01*
X92807928Y-120203146D01*
X92822170Y-120211925D01*
X92947340Y-120289081D01*
X92994832Y-120341852D01*
X93006256Y-120411924D01*
X92977982Y-120477048D01*
X92968195Y-120487510D01*
X92853865Y-120596576D01*
X92716246Y-120781542D01*
X92611760Y-120987051D01*
X92610178Y-120992145D01*
X92610177Y-120992148D01*
X92548115Y-121192020D01*
X92543393Y-121207227D01*
X92542692Y-121212516D01*
X92527304Y-121328623D01*
X92513102Y-121435774D01*
X92521751Y-121666158D01*
X92522846Y-121671377D01*
X92528198Y-121696886D01*
X92569093Y-121891791D01*
X92571051Y-121896750D01*
X92571052Y-121896752D01*
X92642897Y-122078673D01*
X92653776Y-122106221D01*
X92656543Y-122110780D01*
X92656544Y-122110783D01*
X92728517Y-122229390D01*
X92773377Y-122303317D01*
X92776874Y-122307347D01*
X92920444Y-122472797D01*
X92924477Y-122477445D01*
X92928608Y-122480832D01*
X93098627Y-122620240D01*
X93098633Y-122620244D01*
X93102755Y-122623624D01*
X93134250Y-122641552D01*
X93183555Y-122692632D01*
X93197417Y-122762262D01*
X93171434Y-122828333D01*
X93142284Y-122855573D01*
X93020681Y-122937441D01*
X92853865Y-123096576D01*
X92716246Y-123281542D01*
X92611760Y-123487051D01*
X92610178Y-123492145D01*
X92610177Y-123492148D01*
X92566441Y-123633002D01*
X92543393Y-123707227D01*
X92542692Y-123712516D01*
X92520351Y-123881082D01*
X92513102Y-123935774D01*
X88000000Y-123935774D01*
X88000000Y-103375420D01*
X94498575Y-103375420D01*
X94501358Y-103379138D01*
X94639400Y-103430475D01*
X94652991Y-103433864D01*
X94804808Y-103454121D01*
X94818804Y-103454414D01*
X94971331Y-103440533D01*
X94985055Y-103437716D01*
X95130719Y-103390387D01*
X95143469Y-103384603D01*
X95145299Y-103383512D01*
X95152802Y-103375420D01*
X96023575Y-103375420D01*
X96026358Y-103379138D01*
X96164400Y-103430475D01*
X96177991Y-103433864D01*
X96329808Y-103454121D01*
X96343804Y-103454414D01*
X96496331Y-103440533D01*
X96510055Y-103437716D01*
X96655719Y-103390387D01*
X96668469Y-103384603D01*
X96670299Y-103383512D01*
X96679887Y-103373171D01*
X96676381Y-103364757D01*
X96365312Y-103053688D01*
X96351368Y-103046074D01*
X96349533Y-103046205D01*
X96342923Y-103050453D01*
X96030334Y-103363041D01*
X96023575Y-103375420D01*
X95152802Y-103375420D01*
X95154887Y-103373171D01*
X95151381Y-103364757D01*
X94840312Y-103053688D01*
X94826368Y-103046074D01*
X94824533Y-103046205D01*
X94817923Y-103050453D01*
X94505334Y-103363041D01*
X94498575Y-103375420D01*
X88000000Y-103375420D01*
X88000000Y-102612920D01*
X93736075Y-102612920D01*
X93738858Y-102616638D01*
X93876900Y-102667975D01*
X93890491Y-102671364D01*
X93978542Y-102683112D01*
X94043419Y-102711947D01*
X94082407Y-102771280D01*
X94087277Y-102795709D01*
X94092990Y-102853971D01*
X94095901Y-102867664D01*
X94144246Y-103012993D01*
X94149213Y-103023743D01*
X94158988Y-103032680D01*
X94167607Y-103029018D01*
X94478816Y-102717808D01*
X94485193Y-102706129D01*
X95168574Y-102706129D01*
X95168705Y-102707967D01*
X95172955Y-102714579D01*
X95485122Y-103026747D01*
X95497501Y-103033506D01*
X95517006Y-103018905D01*
X95583527Y-102994094D01*
X95652901Y-103009186D01*
X95677533Y-103026779D01*
X95683988Y-103032680D01*
X95692607Y-103029018D01*
X96003816Y-102717808D01*
X96010193Y-102706129D01*
X96693574Y-102706129D01*
X96693705Y-102707967D01*
X96697955Y-102714579D01*
X97010122Y-103026747D01*
X97022501Y-103033506D01*
X97026317Y-103030649D01*
X97076646Y-102898157D01*
X97080128Y-102884596D01*
X97093321Y-102790724D01*
X97122609Y-102726050D01*
X97182213Y-102687477D01*
X97206676Y-102682778D01*
X97258840Y-102678031D01*
X97272555Y-102675216D01*
X97418219Y-102627887D01*
X97430969Y-102622103D01*
X97432799Y-102621012D01*
X97442387Y-102610671D01*
X97438881Y-102602257D01*
X97127812Y-102291188D01*
X97113868Y-102283574D01*
X97112033Y-102283705D01*
X97105423Y-102287953D01*
X96727505Y-102665870D01*
X96727503Y-102665872D01*
X96701185Y-102692191D01*
X96693574Y-102706129D01*
X96010193Y-102706129D01*
X96011427Y-102703870D01*
X96011295Y-102702034D01*
X96007046Y-102695422D01*
X95629130Y-102317505D01*
X95629128Y-102317503D01*
X95602809Y-102291185D01*
X95588871Y-102283574D01*
X95587033Y-102283705D01*
X95580421Y-102287955D01*
X95202505Y-102665870D01*
X95202503Y-102665872D01*
X95176185Y-102692191D01*
X95168574Y-102706129D01*
X94485193Y-102706129D01*
X94486427Y-102703870D01*
X94486295Y-102702034D01*
X94482046Y-102695422D01*
X94104130Y-102317505D01*
X94104128Y-102317503D01*
X94077809Y-102291185D01*
X94063871Y-102283574D01*
X94062033Y-102283705D01*
X94055421Y-102287955D01*
X93742834Y-102600541D01*
X93736075Y-102612920D01*
X88000000Y-102612920D01*
X88000000Y-101939037D01*
X93315544Y-101939037D01*
X93330490Y-102091470D01*
X93333401Y-102105164D01*
X93381746Y-102250493D01*
X93386713Y-102261243D01*
X93396488Y-102270180D01*
X93405107Y-102266518D01*
X93716316Y-101955308D01*
X93722693Y-101943629D01*
X94406074Y-101943629D01*
X94406205Y-101945468D01*
X94410453Y-101952077D01*
X94440005Y-101981630D01*
X94440004Y-101981630D01*
X94440005Y-101981631D01*
X94814690Y-102356315D01*
X94828630Y-102363927D01*
X94830466Y-102363795D01*
X94837078Y-102359546D01*
X95214995Y-101981630D01*
X95214997Y-101981628D01*
X95241315Y-101955309D01*
X95247693Y-101943629D01*
X95931074Y-101943629D01*
X95931205Y-101945468D01*
X95935453Y-101952077D01*
X95965005Y-101981630D01*
X95965004Y-101981630D01*
X95965005Y-101981631D01*
X96339690Y-102356315D01*
X96353630Y-102363927D01*
X96355466Y-102363795D01*
X96362078Y-102359546D01*
X96739995Y-101981630D01*
X96739997Y-101981628D01*
X96766315Y-101955309D01*
X96772692Y-101943630D01*
X97456073Y-101943630D01*
X97456205Y-101945466D01*
X97460454Y-101952078D01*
X97772622Y-102264247D01*
X97785001Y-102271006D01*
X97788817Y-102268149D01*
X97839146Y-102135657D01*
X97842628Y-102122096D01*
X97864374Y-101967369D01*
X97864980Y-101959487D01*
X97865162Y-101946447D01*
X97864777Y-101938577D01*
X97847359Y-101783290D01*
X97844257Y-101769637D01*
X97793889Y-101625000D01*
X97791976Y-101621009D01*
X97784271Y-101614159D01*
X97775220Y-101618155D01*
X97463684Y-101929692D01*
X97456073Y-101943630D01*
X96772692Y-101943630D01*
X96773926Y-101941371D01*
X96773795Y-101939533D01*
X96769545Y-101932921D01*
X96391630Y-101555005D01*
X96391628Y-101555003D01*
X96365309Y-101528685D01*
X96351371Y-101521074D01*
X96349533Y-101521205D01*
X96342921Y-101525455D01*
X95965005Y-101903370D01*
X95965003Y-101903372D01*
X95938685Y-101929691D01*
X95931074Y-101943629D01*
X95247693Y-101943629D01*
X95248926Y-101941371D01*
X95248795Y-101939533D01*
X95244545Y-101932921D01*
X94866630Y-101555005D01*
X94866628Y-101555003D01*
X94840309Y-101528685D01*
X94826371Y-101521074D01*
X94824533Y-101521205D01*
X94817921Y-101525455D01*
X94440005Y-101903370D01*
X94440003Y-101903372D01*
X94413685Y-101929691D01*
X94406074Y-101943629D01*
X93722693Y-101943629D01*
X93723927Y-101941370D01*
X93723795Y-101939534D01*
X93719546Y-101932922D01*
X93406825Y-101620201D01*
X93394445Y-101613441D01*
X93390231Y-101616596D01*
X93338227Y-101759473D01*
X93334935Y-101773081D01*
X93315740Y-101925031D01*
X93315544Y-101939037D01*
X88000000Y-101939037D01*
X88000000Y-101087920D01*
X93736075Y-101087920D01*
X93750362Y-101107005D01*
X93775173Y-101173525D01*
X93760082Y-101242899D01*
X93743075Y-101266886D01*
X93737003Y-101273621D01*
X93740827Y-101282451D01*
X94052188Y-101593812D01*
X94066132Y-101601426D01*
X94067967Y-101601295D01*
X94074577Y-101597047D01*
X94452495Y-101219130D01*
X94452497Y-101219128D01*
X94478815Y-101192809D01*
X94485193Y-101181129D01*
X95168574Y-101181129D01*
X95168705Y-101182968D01*
X95172953Y-101189577D01*
X95202505Y-101219130D01*
X95202504Y-101219130D01*
X95202505Y-101219131D01*
X95577190Y-101593815D01*
X95591130Y-101601427D01*
X95592966Y-101601295D01*
X95599578Y-101597046D01*
X95977495Y-101219130D01*
X95977497Y-101219128D01*
X96003815Y-101192809D01*
X96010193Y-101181129D01*
X96693574Y-101181129D01*
X96693705Y-101182968D01*
X96697953Y-101189577D01*
X96727505Y-101219130D01*
X96727504Y-101219130D01*
X96727505Y-101219131D01*
X97102190Y-101593815D01*
X97116130Y-101601427D01*
X97117966Y-101601295D01*
X97124578Y-101597046D01*
X97436900Y-101284725D01*
X97443659Y-101272347D01*
X97428745Y-101252425D01*
X97403934Y-101185905D01*
X97419025Y-101116530D01*
X97437218Y-101091246D01*
X97442387Y-101085671D01*
X97438881Y-101077257D01*
X97127812Y-100766188D01*
X97113868Y-100758574D01*
X97112033Y-100758705D01*
X97105423Y-100762953D01*
X96727505Y-101140870D01*
X96727503Y-101140872D01*
X96701185Y-101167191D01*
X96693574Y-101181129D01*
X96010193Y-101181129D01*
X96011426Y-101178871D01*
X96011295Y-101177033D01*
X96007045Y-101170421D01*
X95629130Y-100792505D01*
X95629128Y-100792503D01*
X95602809Y-100766185D01*
X95588871Y-100758574D01*
X95587033Y-100758705D01*
X95580421Y-100762955D01*
X95202505Y-101140870D01*
X95202503Y-101140872D01*
X95176185Y-101167191D01*
X95168574Y-101181129D01*
X94485193Y-101181129D01*
X94486426Y-101178871D01*
X94486295Y-101177033D01*
X94482045Y-101170421D01*
X94104130Y-100792505D01*
X94104128Y-100792503D01*
X94077809Y-100766185D01*
X94063871Y-100758574D01*
X94062033Y-100758705D01*
X94055421Y-100762955D01*
X93742834Y-101075541D01*
X93736075Y-101087920D01*
X88000000Y-101087920D01*
X88000000Y-100414037D01*
X93315544Y-100414037D01*
X93330490Y-100566470D01*
X93333401Y-100580164D01*
X93381746Y-100725493D01*
X93386713Y-100736243D01*
X93396488Y-100745180D01*
X93405107Y-100741518D01*
X93716316Y-100430308D01*
X93722693Y-100418629D01*
X94406074Y-100418629D01*
X94406205Y-100420468D01*
X94410453Y-100427077D01*
X94440005Y-100456630D01*
X94440004Y-100456630D01*
X94440005Y-100456631D01*
X94814690Y-100831315D01*
X94828630Y-100838927D01*
X94830466Y-100838795D01*
X94837078Y-100834546D01*
X95214995Y-100456630D01*
X95214997Y-100456628D01*
X95241315Y-100430309D01*
X95247693Y-100418629D01*
X95931074Y-100418629D01*
X95931205Y-100420468D01*
X95935453Y-100427077D01*
X95965005Y-100456630D01*
X95965004Y-100456630D01*
X95965005Y-100456631D01*
X96339690Y-100831315D01*
X96353630Y-100838927D01*
X96355466Y-100838795D01*
X96362078Y-100834546D01*
X96739995Y-100456630D01*
X96739997Y-100456628D01*
X96766315Y-100430309D01*
X96772692Y-100418630D01*
X97456073Y-100418630D01*
X97456205Y-100420466D01*
X97460454Y-100427078D01*
X97772622Y-100739247D01*
X97785001Y-100746006D01*
X97788817Y-100743149D01*
X97839146Y-100610657D01*
X97842628Y-100597096D01*
X97864374Y-100442369D01*
X97864980Y-100434487D01*
X97865162Y-100421447D01*
X97864777Y-100413577D01*
X97847359Y-100258290D01*
X97844257Y-100244637D01*
X97793889Y-100100000D01*
X97791976Y-100096009D01*
X97784271Y-100089159D01*
X97775220Y-100093155D01*
X97463684Y-100404692D01*
X97456073Y-100418630D01*
X96772692Y-100418630D01*
X96773926Y-100416371D01*
X96773795Y-100414533D01*
X96769545Y-100407921D01*
X96391630Y-100030005D01*
X96391628Y-100030003D01*
X96365309Y-100003685D01*
X96351371Y-99996074D01*
X96349533Y-99996205D01*
X96342921Y-100000455D01*
X95965005Y-100378370D01*
X95965003Y-100378372D01*
X95938685Y-100404691D01*
X95931074Y-100418629D01*
X95247693Y-100418629D01*
X95248926Y-100416371D01*
X95248795Y-100414533D01*
X95244545Y-100407921D01*
X94866630Y-100030005D01*
X94866628Y-100030003D01*
X94840309Y-100003685D01*
X94826371Y-99996074D01*
X94824533Y-99996205D01*
X94817921Y-100000455D01*
X94440005Y-100378370D01*
X94440003Y-100378372D01*
X94413685Y-100404691D01*
X94406074Y-100418629D01*
X93722693Y-100418629D01*
X93723927Y-100416370D01*
X93723795Y-100414534D01*
X93719546Y-100407922D01*
X93406825Y-100095201D01*
X93394445Y-100088441D01*
X93390231Y-100091596D01*
X93338227Y-100234473D01*
X93334935Y-100248081D01*
X93315740Y-100400031D01*
X93315544Y-100414037D01*
X88000000Y-100414037D01*
X88000000Y-99748621D01*
X93737003Y-99748621D01*
X93740827Y-99757451D01*
X94052188Y-100068812D01*
X94066132Y-100076426D01*
X94067967Y-100076295D01*
X94074577Y-100072047D01*
X94452495Y-99694130D01*
X94452497Y-99694128D01*
X94478815Y-99667809D01*
X94485192Y-99656130D01*
X95168573Y-99656130D01*
X95168705Y-99657966D01*
X95172954Y-99664578D01*
X95202505Y-99694130D01*
X95202504Y-99694130D01*
X95202505Y-99694131D01*
X95577190Y-100068815D01*
X95591130Y-100076427D01*
X95592966Y-100076295D01*
X95599578Y-100072046D01*
X95977495Y-99694130D01*
X95977497Y-99694128D01*
X96003815Y-99667809D01*
X96010192Y-99656130D01*
X96693573Y-99656130D01*
X96693705Y-99657966D01*
X96697954Y-99664578D01*
X96727505Y-99694130D01*
X96727504Y-99694130D01*
X96727505Y-99694131D01*
X97102190Y-100068815D01*
X97116130Y-100076427D01*
X97117966Y-100076295D01*
X97124578Y-100072046D01*
X97436900Y-99759725D01*
X97443659Y-99747346D01*
X97439689Y-99742043D01*
X97437232Y-99740844D01*
X97292948Y-99689467D01*
X97279323Y-99686272D01*
X97203041Y-99677175D01*
X97137768Y-99649247D01*
X97097956Y-99590464D01*
X97092746Y-99566106D01*
X97084859Y-99495790D01*
X97081757Y-99482137D01*
X97031389Y-99337500D01*
X97029476Y-99333509D01*
X97021771Y-99326659D01*
X97012720Y-99330655D01*
X96701184Y-99642192D01*
X96693573Y-99656130D01*
X96010192Y-99656130D01*
X96011426Y-99653871D01*
X96011295Y-99652034D01*
X96007044Y-99645420D01*
X95694325Y-99332701D01*
X95681945Y-99325941D01*
X95663329Y-99339877D01*
X95596809Y-99364688D01*
X95527435Y-99349597D01*
X95504110Y-99333183D01*
X95496771Y-99326659D01*
X95487720Y-99330655D01*
X95176184Y-99642192D01*
X95168573Y-99656130D01*
X94485192Y-99656130D01*
X94486426Y-99653871D01*
X94486295Y-99652034D01*
X94482044Y-99645420D01*
X94169325Y-99332701D01*
X94156945Y-99325941D01*
X94152731Y-99329096D01*
X94100727Y-99471973D01*
X94097435Y-99485582D01*
X94087052Y-99567770D01*
X94058670Y-99632847D01*
X93999610Y-99672248D01*
X93975217Y-99677288D01*
X93910902Y-99684048D01*
X93897238Y-99687053D01*
X93752243Y-99736412D01*
X93744889Y-99739873D01*
X93737003Y-99748621D01*
X88000000Y-99748621D01*
X88000000Y-98986121D01*
X94499503Y-98986121D01*
X94503327Y-98994951D01*
X94814688Y-99306312D01*
X94828632Y-99313926D01*
X94830467Y-99313795D01*
X94837077Y-99309547D01*
X95149400Y-98997225D01*
X95155463Y-98986121D01*
X96024503Y-98986121D01*
X96028327Y-98994951D01*
X96339688Y-99306312D01*
X96353632Y-99313926D01*
X96355467Y-99313795D01*
X96362077Y-99309547D01*
X96674400Y-98997225D01*
X96681159Y-98984846D01*
X96677189Y-98979543D01*
X96674732Y-98978344D01*
X96530448Y-98926967D01*
X96516822Y-98923771D01*
X96364729Y-98905635D01*
X96350733Y-98905537D01*
X96198402Y-98921548D01*
X96184738Y-98924553D01*
X96039743Y-98973912D01*
X96032389Y-98977373D01*
X96024503Y-98986121D01*
X95155463Y-98986121D01*
X95156159Y-98984846D01*
X95152189Y-98979543D01*
X95149732Y-98978344D01*
X95005448Y-98926967D01*
X94991822Y-98923771D01*
X94839729Y-98905635D01*
X94825733Y-98905537D01*
X94673402Y-98921548D01*
X94659738Y-98924553D01*
X94514743Y-98973912D01*
X94507389Y-98977373D01*
X94499503Y-98986121D01*
X88000000Y-98986121D01*
X88000000Y-71168714D01*
X88020002Y-71100593D01*
X88073658Y-71054100D01*
X88126000Y-71042714D01*
X119759557Y-71042714D01*
X119778945Y-71044215D01*
G37*
%TD.AperFunction*%
%TD*%
%TA.AperFunction,Conductor*%
%TO.N,+24V*%
G36*
X174942121Y-71554716D02*
G01*
X174988614Y-71608372D01*
X175000000Y-71660714D01*
X175000000Y-73238443D01*
X174979998Y-73306564D01*
X174953636Y-73336086D01*
X174893831Y-73384862D01*
X174888891Y-73388891D01*
X174760427Y-73546404D01*
X174666259Y-73726530D01*
X174610234Y-73921913D01*
X174599500Y-74042184D01*
X174599500Y-77957816D01*
X174610234Y-78078087D01*
X174666259Y-78273470D01*
X174760427Y-78453596D01*
X174888891Y-78611109D01*
X174893831Y-78615138D01*
X174953636Y-78663914D01*
X174993784Y-78722469D01*
X175000000Y-78761557D01*
X175000000Y-83238443D01*
X174979998Y-83306564D01*
X174953636Y-83336086D01*
X174893831Y-83384862D01*
X174888891Y-83388891D01*
X174760427Y-83546404D01*
X174666259Y-83726530D01*
X174610234Y-83921913D01*
X174599500Y-84042184D01*
X174599500Y-87957816D01*
X174610234Y-88078087D01*
X174666259Y-88273470D01*
X174760427Y-88453596D01*
X174888891Y-88611109D01*
X174893831Y-88615138D01*
X174953636Y-88663914D01*
X174993784Y-88722469D01*
X175000000Y-88761557D01*
X175000000Y-93238443D01*
X174979998Y-93306564D01*
X174953636Y-93336086D01*
X174893831Y-93384862D01*
X174888891Y-93388891D01*
X174760427Y-93546404D01*
X174666259Y-93726530D01*
X174610234Y-93921913D01*
X174599500Y-94042184D01*
X174599500Y-97957816D01*
X174610234Y-98078087D01*
X174666259Y-98273470D01*
X174760427Y-98453596D01*
X174888891Y-98611109D01*
X174893831Y-98615138D01*
X174953636Y-98663914D01*
X174993784Y-98722469D01*
X175000000Y-98761557D01*
X175000000Y-103238443D01*
X174979998Y-103306564D01*
X174953636Y-103336086D01*
X174893831Y-103384862D01*
X174888891Y-103388891D01*
X174760427Y-103546404D01*
X174666259Y-103726530D01*
X174610234Y-103921913D01*
X174599500Y-104042184D01*
X174599500Y-107957816D01*
X174610234Y-108078087D01*
X174666259Y-108273470D01*
X174760427Y-108453596D01*
X174888891Y-108611109D01*
X174893831Y-108615138D01*
X174953636Y-108663914D01*
X174993784Y-108722469D01*
X175000000Y-108761557D01*
X175000000Y-113238443D01*
X174979998Y-113306564D01*
X174953636Y-113336086D01*
X174893831Y-113384862D01*
X174888891Y-113388891D01*
X174760427Y-113546404D01*
X174666259Y-113726530D01*
X174610234Y-113921913D01*
X174599500Y-114042184D01*
X174599500Y-117957816D01*
X174610234Y-118078087D01*
X174666259Y-118273470D01*
X174760427Y-118453596D01*
X174888891Y-118611109D01*
X174893831Y-118615138D01*
X174953636Y-118663914D01*
X174993784Y-118722469D01*
X175000000Y-118761557D01*
X175000000Y-120874000D01*
X174979998Y-120942121D01*
X174926342Y-120988614D01*
X174874000Y-121000000D01*
X157126000Y-121000000D01*
X157057879Y-120979998D01*
X157011386Y-120926342D01*
X157000000Y-120874000D01*
X157000000Y-100534214D01*
X158803486Y-100534214D01*
X158823242Y-100848229D01*
X158882199Y-101157293D01*
X158979427Y-101456529D01*
X158981114Y-101460115D01*
X158981116Y-101460119D01*
X159111705Y-101737635D01*
X159111709Y-101737642D01*
X159113393Y-101741221D01*
X159281983Y-102006877D01*
X159482540Y-102249308D01*
X159711900Y-102464692D01*
X159715102Y-102467019D01*
X159715104Y-102467020D01*
X159963237Y-102647299D01*
X159963242Y-102647302D01*
X159966446Y-102649630D01*
X160242164Y-102801208D01*
X160401567Y-102864320D01*
X160531022Y-102915575D01*
X160531025Y-102915576D01*
X160534705Y-102917033D01*
X160538539Y-102918017D01*
X160538547Y-102918020D01*
X160727004Y-102966407D01*
X160839457Y-102995280D01*
X160843385Y-102995776D01*
X160843389Y-102995777D01*
X160967305Y-103011431D01*
X161151612Y-103034714D01*
X161466248Y-103034714D01*
X161650555Y-103011431D01*
X161774471Y-102995777D01*
X161774475Y-102995776D01*
X161778403Y-102995280D01*
X161890856Y-102966407D01*
X162079313Y-102918020D01*
X162079321Y-102918017D01*
X162083155Y-102917033D01*
X162086835Y-102915576D01*
X162086838Y-102915575D01*
X162216293Y-102864320D01*
X162375696Y-102801208D01*
X162651414Y-102649630D01*
X162654618Y-102647302D01*
X162654623Y-102647299D01*
X162902756Y-102467020D01*
X162902758Y-102467019D01*
X162905960Y-102464692D01*
X163135320Y-102249308D01*
X163335877Y-102006877D01*
X163504467Y-101741221D01*
X163506151Y-101737642D01*
X163506155Y-101737635D01*
X163636744Y-101460119D01*
X163636746Y-101460115D01*
X163638433Y-101456529D01*
X163735661Y-101157293D01*
X163794618Y-100848229D01*
X163814374Y-100534214D01*
X163794618Y-100220199D01*
X163735661Y-99911135D01*
X163638433Y-99611899D01*
X163636744Y-99608309D01*
X163506155Y-99330793D01*
X163506151Y-99330786D01*
X163504467Y-99327207D01*
X163335877Y-99061551D01*
X163135320Y-98819120D01*
X162905960Y-98603736D01*
X162902756Y-98601408D01*
X162654623Y-98421129D01*
X162654618Y-98421126D01*
X162651414Y-98418798D01*
X162375696Y-98267220D01*
X162216293Y-98204108D01*
X162086838Y-98152853D01*
X162086835Y-98152852D01*
X162083155Y-98151395D01*
X162079321Y-98150411D01*
X162079313Y-98150408D01*
X161820088Y-98083851D01*
X161778403Y-98073148D01*
X161774475Y-98072652D01*
X161774471Y-98072651D01*
X161650555Y-98056997D01*
X161466248Y-98033714D01*
X161151612Y-98033714D01*
X160967305Y-98056997D01*
X160843389Y-98072651D01*
X160843385Y-98072652D01*
X160839457Y-98073148D01*
X160797772Y-98083851D01*
X160538547Y-98150408D01*
X160538539Y-98150411D01*
X160534705Y-98151395D01*
X160531025Y-98152852D01*
X160531022Y-98152853D01*
X160401567Y-98204108D01*
X160242164Y-98267220D01*
X159966446Y-98418798D01*
X159963242Y-98421126D01*
X159963237Y-98421129D01*
X159715104Y-98601408D01*
X159711900Y-98603736D01*
X159482540Y-98819120D01*
X159281983Y-99061551D01*
X159113393Y-99327207D01*
X159111709Y-99330786D01*
X159111705Y-99330793D01*
X158981116Y-99608309D01*
X158979427Y-99611899D01*
X158882199Y-99911135D01*
X158823242Y-100220199D01*
X158803870Y-100528112D01*
X158803486Y-100534214D01*
X157000000Y-100534214D01*
X157000000Y-87126000D01*
X157020002Y-87057879D01*
X157073658Y-87011386D01*
X157126000Y-87000000D01*
X157437224Y-87000000D01*
X157505345Y-87020002D01*
X157536782Y-87048772D01*
X157620639Y-87156880D01*
X157843120Y-87379361D01*
X158091732Y-87572204D01*
X158362552Y-87732367D01*
X158366188Y-87733940D01*
X158366191Y-87733942D01*
X158473849Y-87780529D01*
X158651311Y-87857324D01*
X158655107Y-87858427D01*
X158655113Y-87858429D01*
X158949654Y-87944001D01*
X158953454Y-87945105D01*
X158957355Y-87945723D01*
X158957360Y-87945724D01*
X159127220Y-87972627D01*
X159264217Y-87994325D01*
X159280602Y-87995098D01*
X159393671Y-88000430D01*
X159393680Y-88000430D01*
X159395160Y-88000500D01*
X162604840Y-88000500D01*
X162606320Y-88000430D01*
X162606329Y-88000430D01*
X162719398Y-87995098D01*
X162735783Y-87994325D01*
X162872780Y-87972627D01*
X163042640Y-87945724D01*
X163042645Y-87945723D01*
X163046546Y-87945105D01*
X163050346Y-87944001D01*
X163344887Y-87858429D01*
X163344893Y-87858427D01*
X163348689Y-87857324D01*
X163526151Y-87780529D01*
X163633809Y-87733942D01*
X163633812Y-87733940D01*
X163637448Y-87732367D01*
X163908268Y-87572204D01*
X164156880Y-87379361D01*
X164379361Y-87156880D01*
X164463217Y-87048773D01*
X164520772Y-87007207D01*
X164562776Y-87000000D01*
X166000000Y-87000000D01*
X166000000Y-75143218D01*
X166000043Y-75139920D01*
X166005482Y-74932233D01*
X166005482Y-74932220D01*
X166005540Y-74930000D01*
X166000125Y-74808413D01*
X166000000Y-74802808D01*
X166000000Y-71660714D01*
X166020002Y-71592593D01*
X166073658Y-71546100D01*
X166126000Y-71534714D01*
X174874000Y-71534714D01*
X174942121Y-71554716D01*
G37*
%TD.AperFunction*%
%TD*%
%TA.AperFunction,Conductor*%
%TO.N,GND*%
G36*
X198941969Y-71554716D02*
G01*
X198988462Y-71608372D01*
X198999848Y-71660726D01*
X198999213Y-78615138D01*
X198994792Y-126999992D01*
X199008298Y-127000010D01*
X199008300Y-127000010D01*
X199992120Y-127001291D01*
X201000000Y-127002603D01*
X201994784Y-127003898D01*
X201988143Y-129533714D01*
X159372287Y-129533714D01*
X159358244Y-129532929D01*
X159329078Y-129529658D01*
X159322952Y-129528971D01*
X159298891Y-129530992D01*
X159277370Y-129530955D01*
X159235718Y-129527311D01*
X159146330Y-129519492D01*
X159124700Y-129515678D01*
X158977707Y-129476293D01*
X158957069Y-129468782D01*
X158819146Y-129404470D01*
X158800124Y-129393488D01*
X158675463Y-129306201D01*
X158658639Y-129292084D01*
X158551029Y-129184477D01*
X158536911Y-129167652D01*
X158449623Y-129042995D01*
X158438641Y-129023974D01*
X158374323Y-128886047D01*
X158366813Y-128865413D01*
X158362226Y-128848292D01*
X158327425Y-128718417D01*
X158323611Y-128696790D01*
X158313270Y-128578598D01*
X158313491Y-128560529D01*
X158313400Y-128560528D01*
X158313486Y-128554371D01*
X158314173Y-128548244D01*
X158309872Y-128497027D01*
X158309430Y-128486483D01*
X158309430Y-127605432D01*
X158310424Y-127589639D01*
X158313437Y-127565793D01*
X158313437Y-127565788D01*
X158313879Y-127562292D01*
X158314271Y-127534221D01*
X158312901Y-127520242D01*
X158312474Y-127514558D01*
X158297220Y-127223449D01*
X158297219Y-127223441D01*
X158297047Y-127220156D01*
X158247851Y-126909531D01*
X158166456Y-126605751D01*
X158162328Y-126594995D01*
X158054940Y-126315236D01*
X158053753Y-126312143D01*
X157910978Y-126031923D01*
X157909184Y-126029161D01*
X157909178Y-126029150D01*
X157741497Y-125770939D01*
X157741494Y-125770935D01*
X157739694Y-125768163D01*
X157541777Y-125523751D01*
X157319398Y-125301367D01*
X157165843Y-125177017D01*
X157077561Y-125105526D01*
X157077559Y-125105524D01*
X157074991Y-125103445D01*
X157072216Y-125101643D01*
X157072208Y-125101637D01*
X157057374Y-125092003D01*
X157011138Y-125038126D01*
X157000000Y-124986332D01*
X157000000Y-123126000D01*
X157020002Y-123057879D01*
X157073658Y-123011386D01*
X157126000Y-123000000D01*
X177000000Y-123000000D01*
X177000000Y-119026500D01*
X177020002Y-118958379D01*
X177073658Y-118911886D01*
X177126000Y-118900500D01*
X179457816Y-118900500D01*
X179460603Y-118900251D01*
X179460609Y-118900251D01*
X179546455Y-118892589D01*
X179578087Y-118889766D01*
X179773470Y-118833741D01*
X179953596Y-118739573D01*
X180111109Y-118611109D01*
X180201725Y-118500003D01*
X180235541Y-118458540D01*
X180235542Y-118458539D01*
X180239573Y-118453596D01*
X180333741Y-118273470D01*
X180389766Y-118078087D01*
X180400500Y-117957816D01*
X180400500Y-116000000D01*
X181994556Y-116000000D01*
X182014312Y-116314015D01*
X182073269Y-116623079D01*
X182170497Y-116922315D01*
X182172184Y-116925901D01*
X182172186Y-116925905D01*
X182302775Y-117203421D01*
X182302779Y-117203428D01*
X182304463Y-117207007D01*
X182473053Y-117472663D01*
X182475578Y-117475715D01*
X182634923Y-117668329D01*
X182673610Y-117715094D01*
X182902970Y-117930478D01*
X182906172Y-117932805D01*
X182906174Y-117932806D01*
X183154307Y-118113085D01*
X183154312Y-118113088D01*
X183157516Y-118115416D01*
X183433234Y-118266994D01*
X183463879Y-118279127D01*
X183722092Y-118381361D01*
X183722095Y-118381362D01*
X183725775Y-118382819D01*
X183729609Y-118383803D01*
X183729617Y-118383806D01*
X183870519Y-118419983D01*
X184030527Y-118461066D01*
X184034455Y-118461562D01*
X184034459Y-118461563D01*
X184158375Y-118477217D01*
X184342682Y-118500500D01*
X184657318Y-118500500D01*
X184841625Y-118477217D01*
X184965541Y-118461563D01*
X184965545Y-118461562D01*
X184969473Y-118461066D01*
X185129481Y-118419983D01*
X185270383Y-118383806D01*
X185270391Y-118383803D01*
X185274225Y-118382819D01*
X185277905Y-118381362D01*
X185277908Y-118381361D01*
X185536121Y-118279127D01*
X185566766Y-118266994D01*
X185842484Y-118115416D01*
X185845688Y-118113088D01*
X185845693Y-118113085D01*
X186093826Y-117932806D01*
X186093828Y-117932805D01*
X186097030Y-117930478D01*
X186326390Y-117715094D01*
X186365078Y-117668329D01*
X186524422Y-117475715D01*
X186526947Y-117472663D01*
X186695537Y-117207007D01*
X186697221Y-117203428D01*
X186697225Y-117203421D01*
X186827814Y-116925905D01*
X186827816Y-116925901D01*
X186829503Y-116922315D01*
X186926731Y-116623079D01*
X186985688Y-116314015D01*
X187005444Y-116000000D01*
X193394457Y-116000000D01*
X193414609Y-116307460D01*
X193415413Y-116311500D01*
X193415413Y-116311503D01*
X193416689Y-116317915D01*
X193474720Y-116609659D01*
X193573762Y-116901427D01*
X193710040Y-117177771D01*
X193881222Y-117433964D01*
X193883936Y-117437058D01*
X193883940Y-117437064D01*
X194081671Y-117662531D01*
X194084380Y-117665620D01*
X194087469Y-117668329D01*
X194312936Y-117866060D01*
X194312942Y-117866064D01*
X194316036Y-117868778D01*
X194572229Y-118039960D01*
X194575928Y-118041784D01*
X194575933Y-118041787D01*
X194661231Y-118083851D01*
X194848573Y-118176238D01*
X194852478Y-118177564D01*
X194852479Y-118177564D01*
X195136434Y-118273954D01*
X195136437Y-118273955D01*
X195140341Y-118275280D01*
X195144380Y-118276083D01*
X195144386Y-118276085D01*
X195438497Y-118334587D01*
X195438500Y-118334587D01*
X195442540Y-118335391D01*
X195446651Y-118335660D01*
X195446655Y-118335661D01*
X195671010Y-118350366D01*
X195671019Y-118350366D01*
X195673059Y-118350500D01*
X195826941Y-118350500D01*
X195828981Y-118350366D01*
X195828990Y-118350366D01*
X196053345Y-118335661D01*
X196053349Y-118335660D01*
X196057460Y-118335391D01*
X196061500Y-118334587D01*
X196061503Y-118334587D01*
X196355614Y-118276085D01*
X196355620Y-118276083D01*
X196359659Y-118275280D01*
X196363563Y-118273955D01*
X196363566Y-118273954D01*
X196647521Y-118177564D01*
X196647522Y-118177564D01*
X196651427Y-118176238D01*
X196838769Y-118083851D01*
X196924067Y-118041787D01*
X196924072Y-118041784D01*
X196927771Y-118039960D01*
X197183964Y-117868778D01*
X197187058Y-117866064D01*
X197187064Y-117866060D01*
X197412531Y-117668329D01*
X197415620Y-117665620D01*
X197418329Y-117662531D01*
X197616060Y-117437064D01*
X197616064Y-117437058D01*
X197618778Y-117433964D01*
X197789960Y-117177772D01*
X197926238Y-116901427D01*
X198025280Y-116609659D01*
X198083312Y-116317915D01*
X198084587Y-116311503D01*
X198084587Y-116311500D01*
X198085391Y-116307460D01*
X198105543Y-116000000D01*
X198103630Y-115970814D01*
X198085661Y-115696655D01*
X198085660Y-115696651D01*
X198085391Y-115692540D01*
X198084087Y-115685985D01*
X198026085Y-115394386D01*
X198026083Y-115394380D01*
X198025280Y-115390341D01*
X197976970Y-115248023D01*
X197927564Y-115102479D01*
X197927564Y-115102478D01*
X197926238Y-115098573D01*
X197789960Y-114822229D01*
X197618778Y-114566036D01*
X197616064Y-114562942D01*
X197616060Y-114562936D01*
X197418329Y-114337469D01*
X197415620Y-114334380D01*
X197356110Y-114282191D01*
X197187064Y-114133940D01*
X197187058Y-114133936D01*
X197183964Y-114131222D01*
X196927771Y-113960040D01*
X196924072Y-113958216D01*
X196924067Y-113958213D01*
X196774762Y-113884584D01*
X196651427Y-113823762D01*
X196384069Y-113733006D01*
X196363566Y-113726046D01*
X196363563Y-113726045D01*
X196359659Y-113724720D01*
X196355620Y-113723917D01*
X196355614Y-113723915D01*
X196061503Y-113665413D01*
X196061500Y-113665413D01*
X196057460Y-113664609D01*
X196053349Y-113664340D01*
X196053345Y-113664339D01*
X195828990Y-113649634D01*
X195828981Y-113649634D01*
X195826941Y-113649500D01*
X195673059Y-113649500D01*
X195671019Y-113649634D01*
X195671010Y-113649634D01*
X195446655Y-113664339D01*
X195446651Y-113664340D01*
X195442540Y-113664609D01*
X195438500Y-113665413D01*
X195438497Y-113665413D01*
X195144386Y-113723915D01*
X195144380Y-113723917D01*
X195140341Y-113724720D01*
X195136437Y-113726045D01*
X195136434Y-113726046D01*
X195115931Y-113733006D01*
X194848573Y-113823762D01*
X194725238Y-113884584D01*
X194575933Y-113958213D01*
X194575928Y-113958216D01*
X194572229Y-113960040D01*
X194316036Y-114131222D01*
X194312942Y-114133936D01*
X194312936Y-114133940D01*
X194143890Y-114282191D01*
X194084380Y-114334380D01*
X194081671Y-114337469D01*
X193883940Y-114562936D01*
X193883936Y-114562942D01*
X193881222Y-114566036D01*
X193710040Y-114822228D01*
X193573762Y-115098573D01*
X193572436Y-115102478D01*
X193572436Y-115102479D01*
X193523031Y-115248023D01*
X193474720Y-115390341D01*
X193473917Y-115394380D01*
X193473915Y-115394386D01*
X193415913Y-115685985D01*
X193414609Y-115692540D01*
X193414340Y-115696651D01*
X193414339Y-115696655D01*
X193396370Y-115970814D01*
X193394457Y-116000000D01*
X187005444Y-116000000D01*
X186985688Y-115685985D01*
X186926731Y-115376921D01*
X186829503Y-115077685D01*
X186827814Y-115074095D01*
X186697225Y-114796579D01*
X186697221Y-114796572D01*
X186695537Y-114792993D01*
X186526947Y-114527337D01*
X186367319Y-114334380D01*
X186328915Y-114287958D01*
X186328914Y-114287957D01*
X186326390Y-114284906D01*
X186097030Y-114069522D01*
X186063259Y-114044986D01*
X185845693Y-113886915D01*
X185845688Y-113886912D01*
X185842484Y-113884584D01*
X185566766Y-113733006D01*
X185310934Y-113631715D01*
X185277908Y-113618639D01*
X185277905Y-113618638D01*
X185274225Y-113617181D01*
X185270391Y-113616197D01*
X185270383Y-113616194D01*
X185081926Y-113567807D01*
X184969473Y-113538934D01*
X184965545Y-113538438D01*
X184965541Y-113538437D01*
X184841625Y-113522783D01*
X184657318Y-113499500D01*
X184342682Y-113499500D01*
X184158375Y-113522783D01*
X184034459Y-113538437D01*
X184034455Y-113538438D01*
X184030527Y-113538934D01*
X183918074Y-113567807D01*
X183729617Y-113616194D01*
X183729609Y-113616197D01*
X183725775Y-113617181D01*
X183722095Y-113618638D01*
X183722092Y-113618639D01*
X183689066Y-113631715D01*
X183433234Y-113733006D01*
X183157516Y-113884584D01*
X183154312Y-113886912D01*
X183154307Y-113886915D01*
X182936741Y-114044986D01*
X182902970Y-114069522D01*
X182673610Y-114284906D01*
X182671086Y-114287957D01*
X182671085Y-114287958D01*
X182632681Y-114334380D01*
X182473053Y-114527337D01*
X182304463Y-114792993D01*
X182302779Y-114796572D01*
X182302775Y-114796579D01*
X182172186Y-115074095D01*
X182170497Y-115077685D01*
X182073269Y-115376921D01*
X182014312Y-115685985D01*
X181994556Y-116000000D01*
X180400500Y-116000000D01*
X180400500Y-114042184D01*
X180389766Y-113921913D01*
X180333741Y-113726530D01*
X180239573Y-113546404D01*
X180233076Y-113538437D01*
X180115138Y-113393831D01*
X180111109Y-113388891D01*
X179953596Y-113260427D01*
X179773470Y-113166259D01*
X179578087Y-113110234D01*
X179546455Y-113107411D01*
X179460609Y-113099749D01*
X179460603Y-113099749D01*
X179457816Y-113099500D01*
X177126000Y-113099500D01*
X177057879Y-113079498D01*
X177011386Y-113025842D01*
X177000000Y-112973500D01*
X177000000Y-109026500D01*
X177020002Y-108958379D01*
X177073658Y-108911886D01*
X177126000Y-108900500D01*
X179457816Y-108900500D01*
X179460603Y-108900251D01*
X179460609Y-108900251D01*
X179546455Y-108892589D01*
X179578087Y-108889766D01*
X179773470Y-108833741D01*
X179953596Y-108739573D01*
X180111109Y-108611109D01*
X180201725Y-108500003D01*
X180235541Y-108458540D01*
X180235542Y-108458539D01*
X180239573Y-108453596D01*
X180333741Y-108273470D01*
X180389766Y-108078087D01*
X180400500Y-107957816D01*
X180400500Y-106000000D01*
X181994556Y-106000000D01*
X182014312Y-106314015D01*
X182073269Y-106623079D01*
X182170497Y-106922315D01*
X182172184Y-106925901D01*
X182172186Y-106925905D01*
X182302775Y-107203421D01*
X182302779Y-107203428D01*
X182304463Y-107207007D01*
X182473053Y-107472663D01*
X182475578Y-107475715D01*
X182634923Y-107668329D01*
X182673610Y-107715094D01*
X182902970Y-107930478D01*
X182906172Y-107932805D01*
X182906174Y-107932806D01*
X183154307Y-108113085D01*
X183154312Y-108113088D01*
X183157516Y-108115416D01*
X183433234Y-108266994D01*
X183463879Y-108279127D01*
X183722092Y-108381361D01*
X183722095Y-108381362D01*
X183725775Y-108382819D01*
X183729609Y-108383803D01*
X183729617Y-108383806D01*
X183870519Y-108419983D01*
X184030527Y-108461066D01*
X184034455Y-108461562D01*
X184034459Y-108461563D01*
X184158375Y-108477217D01*
X184342682Y-108500500D01*
X184657318Y-108500500D01*
X184841625Y-108477217D01*
X184965541Y-108461563D01*
X184965545Y-108461562D01*
X184969473Y-108461066D01*
X185129481Y-108419983D01*
X185270383Y-108383806D01*
X185270391Y-108383803D01*
X185274225Y-108382819D01*
X185277905Y-108381362D01*
X185277908Y-108381361D01*
X185536121Y-108279127D01*
X185566766Y-108266994D01*
X185842484Y-108115416D01*
X185845688Y-108113088D01*
X185845693Y-108113085D01*
X186093826Y-107932806D01*
X186093828Y-107932805D01*
X186097030Y-107930478D01*
X186326390Y-107715094D01*
X186365078Y-107668329D01*
X186524422Y-107475715D01*
X186526947Y-107472663D01*
X186695537Y-107207007D01*
X186697221Y-107203428D01*
X186697225Y-107203421D01*
X186827814Y-106925905D01*
X186827816Y-106925901D01*
X186829503Y-106922315D01*
X186926731Y-106623079D01*
X186985688Y-106314015D01*
X187005444Y-106000000D01*
X193394457Y-106000000D01*
X193414609Y-106307460D01*
X193415413Y-106311500D01*
X193415413Y-106311503D01*
X193416689Y-106317915D01*
X193474720Y-106609659D01*
X193573762Y-106901427D01*
X193710040Y-107177771D01*
X193881222Y-107433964D01*
X193883936Y-107437058D01*
X193883940Y-107437064D01*
X194081671Y-107662531D01*
X194084380Y-107665620D01*
X194087469Y-107668329D01*
X194312936Y-107866060D01*
X194312942Y-107866064D01*
X194316036Y-107868778D01*
X194572229Y-108039960D01*
X194575928Y-108041784D01*
X194575933Y-108041787D01*
X194661231Y-108083851D01*
X194848573Y-108176238D01*
X194852478Y-108177564D01*
X194852479Y-108177564D01*
X195136434Y-108273954D01*
X195136437Y-108273955D01*
X195140341Y-108275280D01*
X195144380Y-108276083D01*
X195144386Y-108276085D01*
X195438497Y-108334587D01*
X195438500Y-108334587D01*
X195442540Y-108335391D01*
X195446651Y-108335660D01*
X195446655Y-108335661D01*
X195671010Y-108350366D01*
X195671019Y-108350366D01*
X195673059Y-108350500D01*
X195826941Y-108350500D01*
X195828981Y-108350366D01*
X195828990Y-108350366D01*
X196053345Y-108335661D01*
X196053349Y-108335660D01*
X196057460Y-108335391D01*
X196061500Y-108334587D01*
X196061503Y-108334587D01*
X196355614Y-108276085D01*
X196355620Y-108276083D01*
X196359659Y-108275280D01*
X196363563Y-108273955D01*
X196363566Y-108273954D01*
X196647521Y-108177564D01*
X196647522Y-108177564D01*
X196651427Y-108176238D01*
X196838769Y-108083851D01*
X196924067Y-108041787D01*
X196924072Y-108041784D01*
X196927771Y-108039960D01*
X197183964Y-107868778D01*
X197187058Y-107866064D01*
X197187064Y-107866060D01*
X197412531Y-107668329D01*
X197415620Y-107665620D01*
X197418329Y-107662531D01*
X197616060Y-107437064D01*
X197616064Y-107437058D01*
X197618778Y-107433964D01*
X197789960Y-107177772D01*
X197926238Y-106901427D01*
X198025280Y-106609659D01*
X198083312Y-106317915D01*
X198084587Y-106311503D01*
X198084587Y-106311500D01*
X198085391Y-106307460D01*
X198105543Y-106000000D01*
X198103630Y-105970814D01*
X198085661Y-105696655D01*
X198085660Y-105696651D01*
X198085391Y-105692540D01*
X198084087Y-105685985D01*
X198026085Y-105394386D01*
X198026083Y-105394380D01*
X198025280Y-105390341D01*
X197976970Y-105248023D01*
X197927564Y-105102479D01*
X197927564Y-105102478D01*
X197926238Y-105098573D01*
X197789960Y-104822229D01*
X197618778Y-104566036D01*
X197616064Y-104562942D01*
X197616060Y-104562936D01*
X197418329Y-104337469D01*
X197415620Y-104334380D01*
X197356110Y-104282191D01*
X197187064Y-104133940D01*
X197187058Y-104133936D01*
X197183964Y-104131222D01*
X196927771Y-103960040D01*
X196924072Y-103958216D01*
X196924067Y-103958213D01*
X196774762Y-103884584D01*
X196651427Y-103823762D01*
X196384069Y-103733006D01*
X196363566Y-103726046D01*
X196363563Y-103726045D01*
X196359659Y-103724720D01*
X196355620Y-103723917D01*
X196355614Y-103723915D01*
X196061503Y-103665413D01*
X196061500Y-103665413D01*
X196057460Y-103664609D01*
X196053349Y-103664340D01*
X196053345Y-103664339D01*
X195828990Y-103649634D01*
X195828981Y-103649634D01*
X195826941Y-103649500D01*
X195673059Y-103649500D01*
X195671019Y-103649634D01*
X195671010Y-103649634D01*
X195446655Y-103664339D01*
X195446651Y-103664340D01*
X195442540Y-103664609D01*
X195438500Y-103665413D01*
X195438497Y-103665413D01*
X195144386Y-103723915D01*
X195144380Y-103723917D01*
X195140341Y-103724720D01*
X195136437Y-103726045D01*
X195136434Y-103726046D01*
X195115931Y-103733006D01*
X194848573Y-103823762D01*
X194725238Y-103884584D01*
X194575933Y-103958213D01*
X194575928Y-103958216D01*
X194572229Y-103960040D01*
X194316036Y-104131222D01*
X194312942Y-104133936D01*
X194312936Y-104133940D01*
X194143890Y-104282191D01*
X194084380Y-104334380D01*
X194081671Y-104337469D01*
X193883940Y-104562936D01*
X193883936Y-104562942D01*
X193881222Y-104566036D01*
X193710040Y-104822228D01*
X193573762Y-105098573D01*
X193572436Y-105102478D01*
X193572436Y-105102479D01*
X193523031Y-105248023D01*
X193474720Y-105390341D01*
X193473917Y-105394380D01*
X193473915Y-105394386D01*
X193415913Y-105685985D01*
X193414609Y-105692540D01*
X193414340Y-105696651D01*
X193414339Y-105696655D01*
X193396370Y-105970814D01*
X193394457Y-106000000D01*
X187005444Y-106000000D01*
X186985688Y-105685985D01*
X186926731Y-105376921D01*
X186829503Y-105077685D01*
X186827814Y-105074095D01*
X186697225Y-104796579D01*
X186697221Y-104796572D01*
X186695537Y-104792993D01*
X186526947Y-104527337D01*
X186367319Y-104334380D01*
X186328915Y-104287958D01*
X186328914Y-104287957D01*
X186326390Y-104284906D01*
X186097030Y-104069522D01*
X186063259Y-104044986D01*
X185845693Y-103886915D01*
X185845688Y-103886912D01*
X185842484Y-103884584D01*
X185566766Y-103733006D01*
X185310934Y-103631715D01*
X185277908Y-103618639D01*
X185277905Y-103618638D01*
X185274225Y-103617181D01*
X185270391Y-103616197D01*
X185270383Y-103616194D01*
X185081926Y-103567807D01*
X184969473Y-103538934D01*
X184965545Y-103538438D01*
X184965541Y-103538437D01*
X184841625Y-103522783D01*
X184657318Y-103499500D01*
X184342682Y-103499500D01*
X184158375Y-103522783D01*
X184034459Y-103538437D01*
X184034455Y-103538438D01*
X184030527Y-103538934D01*
X183918074Y-103567807D01*
X183729617Y-103616194D01*
X183729609Y-103616197D01*
X183725775Y-103617181D01*
X183722095Y-103618638D01*
X183722092Y-103618639D01*
X183689066Y-103631715D01*
X183433234Y-103733006D01*
X183157516Y-103884584D01*
X183154312Y-103886912D01*
X183154307Y-103886915D01*
X182936741Y-104044986D01*
X182902970Y-104069522D01*
X182673610Y-104284906D01*
X182671086Y-104287957D01*
X182671085Y-104287958D01*
X182632681Y-104334380D01*
X182473053Y-104527337D01*
X182304463Y-104792993D01*
X182302779Y-104796572D01*
X182302775Y-104796579D01*
X182172186Y-105074095D01*
X182170497Y-105077685D01*
X182073269Y-105376921D01*
X182014312Y-105685985D01*
X181994556Y-106000000D01*
X180400500Y-106000000D01*
X180400500Y-104042184D01*
X180389766Y-103921913D01*
X180333741Y-103726530D01*
X180239573Y-103546404D01*
X180233076Y-103538437D01*
X180115138Y-103393831D01*
X180111109Y-103388891D01*
X179953596Y-103260427D01*
X179773470Y-103166259D01*
X179578087Y-103110234D01*
X179546455Y-103107411D01*
X179460609Y-103099749D01*
X179460603Y-103099749D01*
X179457816Y-103099500D01*
X177126000Y-103099500D01*
X177057879Y-103079498D01*
X177011386Y-103025842D01*
X177000000Y-102973500D01*
X177000000Y-99026500D01*
X177020002Y-98958379D01*
X177073658Y-98911886D01*
X177126000Y-98900500D01*
X179457816Y-98900500D01*
X179460603Y-98900251D01*
X179460609Y-98900251D01*
X179546455Y-98892589D01*
X179578087Y-98889766D01*
X179773470Y-98833741D01*
X179953596Y-98739573D01*
X180111109Y-98611109D01*
X180201725Y-98500003D01*
X180235541Y-98458540D01*
X180235542Y-98458539D01*
X180239573Y-98453596D01*
X180333741Y-98273470D01*
X180389766Y-98078087D01*
X180400500Y-97957816D01*
X180400500Y-96000000D01*
X181994556Y-96000000D01*
X182014312Y-96314015D01*
X182073269Y-96623079D01*
X182170497Y-96922315D01*
X182172184Y-96925901D01*
X182172186Y-96925905D01*
X182302775Y-97203421D01*
X182302779Y-97203428D01*
X182304463Y-97207007D01*
X182473053Y-97472663D01*
X182475578Y-97475715D01*
X182634923Y-97668329D01*
X182673610Y-97715094D01*
X182902970Y-97930478D01*
X182906172Y-97932805D01*
X182906174Y-97932806D01*
X183154307Y-98113085D01*
X183154312Y-98113088D01*
X183157516Y-98115416D01*
X183433234Y-98266994D01*
X183463879Y-98279127D01*
X183722092Y-98381361D01*
X183722095Y-98381362D01*
X183725775Y-98382819D01*
X183729609Y-98383803D01*
X183729617Y-98383806D01*
X183870519Y-98419983D01*
X184030527Y-98461066D01*
X184034455Y-98461562D01*
X184034459Y-98461563D01*
X184158375Y-98477217D01*
X184342682Y-98500500D01*
X184657318Y-98500500D01*
X184841625Y-98477217D01*
X184965541Y-98461563D01*
X184965545Y-98461562D01*
X184969473Y-98461066D01*
X185129481Y-98419983D01*
X185270383Y-98383806D01*
X185270391Y-98383803D01*
X185274225Y-98382819D01*
X185277905Y-98381362D01*
X185277908Y-98381361D01*
X185536121Y-98279127D01*
X185566766Y-98266994D01*
X185842484Y-98115416D01*
X185845688Y-98113088D01*
X185845693Y-98113085D01*
X186093826Y-97932806D01*
X186093828Y-97932805D01*
X186097030Y-97930478D01*
X186326390Y-97715094D01*
X186365078Y-97668329D01*
X186524422Y-97475715D01*
X186526947Y-97472663D01*
X186695537Y-97207007D01*
X186697221Y-97203428D01*
X186697225Y-97203421D01*
X186827814Y-96925905D01*
X186827816Y-96925901D01*
X186829503Y-96922315D01*
X186926731Y-96623079D01*
X186985688Y-96314015D01*
X187005444Y-96000000D01*
X193394457Y-96000000D01*
X193414609Y-96307460D01*
X193415413Y-96311500D01*
X193415413Y-96311503D01*
X193416689Y-96317915D01*
X193474720Y-96609659D01*
X193573762Y-96901427D01*
X193710040Y-97177771D01*
X193881222Y-97433964D01*
X193883936Y-97437058D01*
X193883940Y-97437064D01*
X194081671Y-97662531D01*
X194084380Y-97665620D01*
X194087469Y-97668329D01*
X194312936Y-97866060D01*
X194312942Y-97866064D01*
X194316036Y-97868778D01*
X194572229Y-98039960D01*
X194575928Y-98041784D01*
X194575933Y-98041787D01*
X194661231Y-98083851D01*
X194848573Y-98176238D01*
X194852478Y-98177564D01*
X194852479Y-98177564D01*
X195136434Y-98273954D01*
X195136437Y-98273955D01*
X195140341Y-98275280D01*
X195144380Y-98276083D01*
X195144386Y-98276085D01*
X195438497Y-98334587D01*
X195438500Y-98334587D01*
X195442540Y-98335391D01*
X195446651Y-98335660D01*
X195446655Y-98335661D01*
X195671010Y-98350366D01*
X195671019Y-98350366D01*
X195673059Y-98350500D01*
X195826941Y-98350500D01*
X195828981Y-98350366D01*
X195828990Y-98350366D01*
X196053345Y-98335661D01*
X196053349Y-98335660D01*
X196057460Y-98335391D01*
X196061500Y-98334587D01*
X196061503Y-98334587D01*
X196355614Y-98276085D01*
X196355620Y-98276083D01*
X196359659Y-98275280D01*
X196363563Y-98273955D01*
X196363566Y-98273954D01*
X196647521Y-98177564D01*
X196647522Y-98177564D01*
X196651427Y-98176238D01*
X196838769Y-98083851D01*
X196924067Y-98041787D01*
X196924072Y-98041784D01*
X196927771Y-98039960D01*
X197183964Y-97868778D01*
X197187058Y-97866064D01*
X197187064Y-97866060D01*
X197412531Y-97668329D01*
X197415620Y-97665620D01*
X197418329Y-97662531D01*
X197616060Y-97437064D01*
X197616064Y-97437058D01*
X197618778Y-97433964D01*
X197789960Y-97177772D01*
X197926238Y-96901427D01*
X198025280Y-96609659D01*
X198083312Y-96317915D01*
X198084587Y-96311503D01*
X198084587Y-96311500D01*
X198085391Y-96307460D01*
X198105543Y-96000000D01*
X198103630Y-95970814D01*
X198085661Y-95696655D01*
X198085660Y-95696651D01*
X198085391Y-95692540D01*
X198084087Y-95685985D01*
X198026085Y-95394386D01*
X198026083Y-95394380D01*
X198025280Y-95390341D01*
X197976970Y-95248023D01*
X197927564Y-95102479D01*
X197927564Y-95102478D01*
X197926238Y-95098573D01*
X197843326Y-94930445D01*
X197791787Y-94825933D01*
X197791784Y-94825928D01*
X197789960Y-94822229D01*
X197618778Y-94566036D01*
X197616064Y-94562942D01*
X197616060Y-94562936D01*
X197418329Y-94337469D01*
X197415620Y-94334380D01*
X197319641Y-94250208D01*
X197187064Y-94133940D01*
X197187058Y-94133936D01*
X197183964Y-94131222D01*
X196927771Y-93960040D01*
X196924072Y-93958216D01*
X196924067Y-93958213D01*
X196774762Y-93884584D01*
X196651427Y-93823762D01*
X196384069Y-93733006D01*
X196363566Y-93726046D01*
X196363563Y-93726045D01*
X196359659Y-93724720D01*
X196355620Y-93723917D01*
X196355614Y-93723915D01*
X196061503Y-93665413D01*
X196061500Y-93665413D01*
X196057460Y-93664609D01*
X196053349Y-93664340D01*
X196053345Y-93664339D01*
X195828990Y-93649634D01*
X195828981Y-93649634D01*
X195826941Y-93649500D01*
X195673059Y-93649500D01*
X195671019Y-93649634D01*
X195671010Y-93649634D01*
X195446655Y-93664339D01*
X195446651Y-93664340D01*
X195442540Y-93664609D01*
X195438500Y-93665413D01*
X195438497Y-93665413D01*
X195144386Y-93723915D01*
X195144380Y-93723917D01*
X195140341Y-93724720D01*
X195136437Y-93726045D01*
X195136434Y-93726046D01*
X195115931Y-93733006D01*
X194848573Y-93823762D01*
X194725238Y-93884584D01*
X194575933Y-93958213D01*
X194575928Y-93958216D01*
X194572229Y-93960040D01*
X194316036Y-94131222D01*
X194312942Y-94133936D01*
X194312936Y-94133940D01*
X194180359Y-94250208D01*
X194084380Y-94334380D01*
X194081671Y-94337469D01*
X193883940Y-94562936D01*
X193883936Y-94562942D01*
X193881222Y-94566036D01*
X193710040Y-94822228D01*
X193573762Y-95098573D01*
X193572436Y-95102478D01*
X193572436Y-95102479D01*
X193523031Y-95248023D01*
X193474720Y-95390341D01*
X193473917Y-95394380D01*
X193473915Y-95394386D01*
X193415913Y-95685985D01*
X193414609Y-95692540D01*
X193414340Y-95696651D01*
X193414339Y-95696655D01*
X193396370Y-95970814D01*
X193394457Y-96000000D01*
X187005444Y-96000000D01*
X186985688Y-95685985D01*
X186926731Y-95376921D01*
X186829503Y-95077685D01*
X186797319Y-95009290D01*
X186697225Y-94796579D01*
X186697221Y-94796572D01*
X186695537Y-94792993D01*
X186526947Y-94527337D01*
X186367319Y-94334380D01*
X186328915Y-94287958D01*
X186328914Y-94287957D01*
X186326390Y-94284906D01*
X186097030Y-94069522D01*
X186063259Y-94044986D01*
X185845693Y-93886915D01*
X185845688Y-93886912D01*
X185842484Y-93884584D01*
X185566766Y-93733006D01*
X185310934Y-93631715D01*
X185277908Y-93618639D01*
X185277905Y-93618638D01*
X185274225Y-93617181D01*
X185270391Y-93616197D01*
X185270383Y-93616194D01*
X185081926Y-93567807D01*
X184969473Y-93538934D01*
X184965545Y-93538438D01*
X184965541Y-93538437D01*
X184841625Y-93522783D01*
X184657318Y-93499500D01*
X184342682Y-93499500D01*
X184158375Y-93522783D01*
X184034459Y-93538437D01*
X184034455Y-93538438D01*
X184030527Y-93538934D01*
X183918074Y-93567807D01*
X183729617Y-93616194D01*
X183729609Y-93616197D01*
X183725775Y-93617181D01*
X183722095Y-93618638D01*
X183722092Y-93618639D01*
X183689066Y-93631715D01*
X183433234Y-93733006D01*
X183157516Y-93884584D01*
X183154312Y-93886912D01*
X183154307Y-93886915D01*
X182936741Y-94044986D01*
X182902970Y-94069522D01*
X182673610Y-94284906D01*
X182671086Y-94287957D01*
X182671085Y-94287958D01*
X182632681Y-94334380D01*
X182473053Y-94527337D01*
X182304463Y-94792993D01*
X182302779Y-94796572D01*
X182302775Y-94796579D01*
X182202681Y-95009290D01*
X182170497Y-95077685D01*
X182073269Y-95376921D01*
X182014312Y-95685985D01*
X181994556Y-96000000D01*
X180400500Y-96000000D01*
X180400500Y-94042184D01*
X180389766Y-93921913D01*
X180333741Y-93726530D01*
X180239573Y-93546404D01*
X180233076Y-93538437D01*
X180115138Y-93393831D01*
X180111109Y-93388891D01*
X179953596Y-93260427D01*
X179773470Y-93166259D01*
X179578087Y-93110234D01*
X179546455Y-93107411D01*
X179460609Y-93099749D01*
X179460603Y-93099749D01*
X179457816Y-93099500D01*
X177126000Y-93099500D01*
X177057879Y-93079498D01*
X177011386Y-93025842D01*
X177000000Y-92973500D01*
X177000000Y-89026500D01*
X177020002Y-88958379D01*
X177073658Y-88911886D01*
X177126000Y-88900500D01*
X179457816Y-88900500D01*
X179460603Y-88900251D01*
X179460609Y-88900251D01*
X179546455Y-88892589D01*
X179578087Y-88889766D01*
X179773470Y-88833741D01*
X179953596Y-88739573D01*
X180111109Y-88611109D01*
X180201725Y-88500003D01*
X180235541Y-88458540D01*
X180235542Y-88458539D01*
X180239573Y-88453596D01*
X180333741Y-88273470D01*
X180389766Y-88078087D01*
X180400500Y-87957816D01*
X180400500Y-86000000D01*
X181994556Y-86000000D01*
X182014312Y-86314015D01*
X182073269Y-86623079D01*
X182170497Y-86922315D01*
X182172184Y-86925901D01*
X182172186Y-86925905D01*
X182302775Y-87203421D01*
X182302779Y-87203428D01*
X182304463Y-87207007D01*
X182473053Y-87472663D01*
X182475578Y-87475715D01*
X182634923Y-87668329D01*
X182673610Y-87715094D01*
X182902970Y-87930478D01*
X182906172Y-87932805D01*
X182906174Y-87932806D01*
X183154307Y-88113085D01*
X183154312Y-88113088D01*
X183157516Y-88115416D01*
X183433234Y-88266994D01*
X183463879Y-88279127D01*
X183722092Y-88381361D01*
X183722095Y-88381362D01*
X183725775Y-88382819D01*
X183729609Y-88383803D01*
X183729617Y-88383806D01*
X183870519Y-88419983D01*
X184030527Y-88461066D01*
X184034455Y-88461562D01*
X184034459Y-88461563D01*
X184158375Y-88477217D01*
X184342682Y-88500500D01*
X184657318Y-88500500D01*
X184841625Y-88477217D01*
X184965541Y-88461563D01*
X184965545Y-88461562D01*
X184969473Y-88461066D01*
X185129481Y-88419983D01*
X185270383Y-88383806D01*
X185270391Y-88383803D01*
X185274225Y-88382819D01*
X185277905Y-88381362D01*
X185277908Y-88381361D01*
X185536121Y-88279127D01*
X185566766Y-88266994D01*
X185842484Y-88115416D01*
X185845688Y-88113088D01*
X185845693Y-88113085D01*
X186093826Y-87932806D01*
X186093828Y-87932805D01*
X186097030Y-87930478D01*
X186326390Y-87715094D01*
X186365078Y-87668329D01*
X186524422Y-87475715D01*
X186526947Y-87472663D01*
X186695537Y-87207007D01*
X186697221Y-87203428D01*
X186697225Y-87203421D01*
X186827814Y-86925905D01*
X186827816Y-86925901D01*
X186829503Y-86922315D01*
X186926731Y-86623079D01*
X186985688Y-86314015D01*
X187005444Y-86000000D01*
X193394457Y-86000000D01*
X193414609Y-86307460D01*
X193415413Y-86311500D01*
X193415413Y-86311503D01*
X193416689Y-86317915D01*
X193474720Y-86609659D01*
X193573762Y-86901427D01*
X193638172Y-87032038D01*
X193699738Y-87156880D01*
X193710040Y-87177771D01*
X193881222Y-87433964D01*
X193883936Y-87437058D01*
X193883940Y-87437064D01*
X194002456Y-87572204D01*
X194084380Y-87665620D01*
X194087469Y-87668329D01*
X194312936Y-87866060D01*
X194312942Y-87866064D01*
X194316036Y-87868778D01*
X194572229Y-88039960D01*
X194575928Y-88041784D01*
X194575933Y-88041787D01*
X194650376Y-88078498D01*
X194848573Y-88176238D01*
X194852478Y-88177564D01*
X194852479Y-88177564D01*
X195136434Y-88273954D01*
X195136437Y-88273955D01*
X195140341Y-88275280D01*
X195144380Y-88276083D01*
X195144386Y-88276085D01*
X195438497Y-88334587D01*
X195438500Y-88334587D01*
X195442540Y-88335391D01*
X195446651Y-88335660D01*
X195446655Y-88335661D01*
X195671010Y-88350366D01*
X195671019Y-88350366D01*
X195673059Y-88350500D01*
X195826941Y-88350500D01*
X195828981Y-88350366D01*
X195828990Y-88350366D01*
X196053345Y-88335661D01*
X196053349Y-88335660D01*
X196057460Y-88335391D01*
X196061500Y-88334587D01*
X196061503Y-88334587D01*
X196355614Y-88276085D01*
X196355620Y-88276083D01*
X196359659Y-88275280D01*
X196363563Y-88273955D01*
X196363566Y-88273954D01*
X196647521Y-88177564D01*
X196647522Y-88177564D01*
X196651427Y-88176238D01*
X196849624Y-88078498D01*
X196924067Y-88041787D01*
X196924072Y-88041784D01*
X196927771Y-88039960D01*
X197183964Y-87868778D01*
X197187058Y-87866064D01*
X197187064Y-87866060D01*
X197412531Y-87668329D01*
X197415620Y-87665620D01*
X197497544Y-87572204D01*
X197616060Y-87437064D01*
X197616064Y-87437058D01*
X197618778Y-87433964D01*
X197789960Y-87177772D01*
X197926238Y-86901427D01*
X198025280Y-86609659D01*
X198083312Y-86317915D01*
X198084587Y-86311503D01*
X198084587Y-86311500D01*
X198085391Y-86307460D01*
X198105543Y-86000000D01*
X198103630Y-85970814D01*
X198085661Y-85696655D01*
X198085660Y-85696651D01*
X198085391Y-85692540D01*
X198084087Y-85685985D01*
X198026085Y-85394386D01*
X198026083Y-85394380D01*
X198025280Y-85390341D01*
X197976970Y-85248023D01*
X197927564Y-85102479D01*
X197927564Y-85102478D01*
X197926238Y-85098573D01*
X197789960Y-84822229D01*
X197618778Y-84566036D01*
X197616064Y-84562942D01*
X197616060Y-84562936D01*
X197418329Y-84337469D01*
X197415620Y-84334380D01*
X197356110Y-84282191D01*
X197187064Y-84133940D01*
X197187058Y-84133936D01*
X197183964Y-84131222D01*
X196927771Y-83960040D01*
X196924072Y-83958216D01*
X196924067Y-83958213D01*
X196774762Y-83884584D01*
X196651427Y-83823762D01*
X196384069Y-83733006D01*
X196363566Y-83726046D01*
X196363563Y-83726045D01*
X196359659Y-83724720D01*
X196355620Y-83723917D01*
X196355614Y-83723915D01*
X196061503Y-83665413D01*
X196061500Y-83665413D01*
X196057460Y-83664609D01*
X196053349Y-83664340D01*
X196053345Y-83664339D01*
X195828990Y-83649634D01*
X195828981Y-83649634D01*
X195826941Y-83649500D01*
X195673059Y-83649500D01*
X195671019Y-83649634D01*
X195671010Y-83649634D01*
X195446655Y-83664339D01*
X195446651Y-83664340D01*
X195442540Y-83664609D01*
X195438500Y-83665413D01*
X195438497Y-83665413D01*
X195144386Y-83723915D01*
X195144380Y-83723917D01*
X195140341Y-83724720D01*
X195136437Y-83726045D01*
X195136434Y-83726046D01*
X195115931Y-83733006D01*
X194848573Y-83823762D01*
X194725238Y-83884584D01*
X194575933Y-83958213D01*
X194575928Y-83958216D01*
X194572229Y-83960040D01*
X194316036Y-84131222D01*
X194312942Y-84133936D01*
X194312936Y-84133940D01*
X194143890Y-84282191D01*
X194084380Y-84334380D01*
X194081671Y-84337469D01*
X193883940Y-84562936D01*
X193883936Y-84562942D01*
X193881222Y-84566036D01*
X193710040Y-84822228D01*
X193573762Y-85098573D01*
X193572436Y-85102478D01*
X193572436Y-85102479D01*
X193523031Y-85248023D01*
X193474720Y-85390341D01*
X193473917Y-85394380D01*
X193473915Y-85394386D01*
X193415913Y-85685985D01*
X193414609Y-85692540D01*
X193414340Y-85696651D01*
X193414339Y-85696655D01*
X193396370Y-85970814D01*
X193394457Y-86000000D01*
X187005444Y-86000000D01*
X186985688Y-85685985D01*
X186926731Y-85376921D01*
X186829503Y-85077685D01*
X186827814Y-85074095D01*
X186697225Y-84796579D01*
X186697221Y-84796572D01*
X186695537Y-84792993D01*
X186526947Y-84527337D01*
X186367319Y-84334380D01*
X186328915Y-84287958D01*
X186328914Y-84287957D01*
X186326390Y-84284906D01*
X186097030Y-84069522D01*
X186063259Y-84044986D01*
X185845693Y-83886915D01*
X185845688Y-83886912D01*
X185842484Y-83884584D01*
X185566766Y-83733006D01*
X185310934Y-83631715D01*
X185277908Y-83618639D01*
X185277905Y-83618638D01*
X185274225Y-83617181D01*
X185270391Y-83616197D01*
X185270383Y-83616194D01*
X185081926Y-83567807D01*
X184969473Y-83538934D01*
X184965545Y-83538438D01*
X184965541Y-83538437D01*
X184841625Y-83522783D01*
X184657318Y-83499500D01*
X184342682Y-83499500D01*
X184158375Y-83522783D01*
X184034459Y-83538437D01*
X184034455Y-83538438D01*
X184030527Y-83538934D01*
X183918074Y-83567807D01*
X183729617Y-83616194D01*
X183729609Y-83616197D01*
X183725775Y-83617181D01*
X183722095Y-83618638D01*
X183722092Y-83618639D01*
X183689066Y-83631715D01*
X183433234Y-83733006D01*
X183157516Y-83884584D01*
X183154312Y-83886912D01*
X183154307Y-83886915D01*
X182936741Y-84044986D01*
X182902970Y-84069522D01*
X182673610Y-84284906D01*
X182671086Y-84287957D01*
X182671085Y-84287958D01*
X182632681Y-84334380D01*
X182473053Y-84527337D01*
X182304463Y-84792993D01*
X182302779Y-84796572D01*
X182302775Y-84796579D01*
X182172186Y-85074095D01*
X182170497Y-85077685D01*
X182073269Y-85376921D01*
X182014312Y-85685985D01*
X181994556Y-86000000D01*
X180400500Y-86000000D01*
X180400500Y-84042184D01*
X180389766Y-83921913D01*
X180333741Y-83726530D01*
X180239573Y-83546404D01*
X180233076Y-83538437D01*
X180115138Y-83393831D01*
X180111109Y-83388891D01*
X179953596Y-83260427D01*
X179773470Y-83166259D01*
X179578087Y-83110234D01*
X179546455Y-83107411D01*
X179460609Y-83099749D01*
X179460603Y-83099749D01*
X179457816Y-83099500D01*
X177126000Y-83099500D01*
X177057879Y-83079498D01*
X177011386Y-83025842D01*
X177000000Y-82973500D01*
X177000000Y-79026500D01*
X177020002Y-78958379D01*
X177073658Y-78911886D01*
X177126000Y-78900500D01*
X179457816Y-78900500D01*
X179460603Y-78900251D01*
X179460609Y-78900251D01*
X179546455Y-78892589D01*
X179578087Y-78889766D01*
X179773470Y-78833741D01*
X179953596Y-78739573D01*
X180111109Y-78611109D01*
X180201725Y-78500003D01*
X180235541Y-78458540D01*
X180235542Y-78458539D01*
X180239573Y-78453596D01*
X180333741Y-78273470D01*
X180389766Y-78078087D01*
X180400500Y-77957816D01*
X180400500Y-76000000D01*
X181994556Y-76000000D01*
X182014312Y-76314015D01*
X182073269Y-76623079D01*
X182170497Y-76922315D01*
X182172184Y-76925901D01*
X182172186Y-76925905D01*
X182302775Y-77203421D01*
X182302779Y-77203428D01*
X182304463Y-77207007D01*
X182473053Y-77472663D01*
X182475578Y-77475715D01*
X182634923Y-77668329D01*
X182673610Y-77715094D01*
X182902970Y-77930478D01*
X182906172Y-77932805D01*
X182906174Y-77932806D01*
X183154307Y-78113085D01*
X183154312Y-78113088D01*
X183157516Y-78115416D01*
X183433234Y-78266994D01*
X183463879Y-78279127D01*
X183722092Y-78381361D01*
X183722095Y-78381362D01*
X183725775Y-78382819D01*
X183729609Y-78383803D01*
X183729617Y-78383806D01*
X183870519Y-78419983D01*
X184030527Y-78461066D01*
X184034455Y-78461562D01*
X184034459Y-78461563D01*
X184158375Y-78477217D01*
X184342682Y-78500500D01*
X184657318Y-78500500D01*
X184841625Y-78477217D01*
X184965541Y-78461563D01*
X184965545Y-78461562D01*
X184969473Y-78461066D01*
X185129481Y-78419983D01*
X185270383Y-78383806D01*
X185270391Y-78383803D01*
X185274225Y-78382819D01*
X185277905Y-78381362D01*
X185277908Y-78381361D01*
X185536121Y-78279127D01*
X185566766Y-78266994D01*
X185842484Y-78115416D01*
X185845688Y-78113088D01*
X185845693Y-78113085D01*
X186093826Y-77932806D01*
X186093828Y-77932805D01*
X186097030Y-77930478D01*
X186326390Y-77715094D01*
X186365078Y-77668329D01*
X186524422Y-77475715D01*
X186526947Y-77472663D01*
X186695537Y-77207007D01*
X186697221Y-77203428D01*
X186697225Y-77203421D01*
X186827814Y-76925905D01*
X186827816Y-76925901D01*
X186829503Y-76922315D01*
X186926731Y-76623079D01*
X186985688Y-76314015D01*
X187005444Y-76000000D01*
X193394457Y-76000000D01*
X193414609Y-76307460D01*
X193415413Y-76311500D01*
X193415413Y-76311503D01*
X193416689Y-76317915D01*
X193474720Y-76609659D01*
X193573762Y-76901427D01*
X193710040Y-77177771D01*
X193881222Y-77433964D01*
X193883936Y-77437058D01*
X193883940Y-77437064D01*
X194081671Y-77662531D01*
X194084380Y-77665620D01*
X194087469Y-77668329D01*
X194312936Y-77866060D01*
X194312942Y-77866064D01*
X194316036Y-77868778D01*
X194572229Y-78039960D01*
X194575928Y-78041784D01*
X194575933Y-78041787D01*
X194661231Y-78083851D01*
X194848573Y-78176238D01*
X194852478Y-78177564D01*
X194852479Y-78177564D01*
X195136434Y-78273954D01*
X195136437Y-78273955D01*
X195140341Y-78275280D01*
X195144380Y-78276083D01*
X195144386Y-78276085D01*
X195438497Y-78334587D01*
X195438500Y-78334587D01*
X195442540Y-78335391D01*
X195446651Y-78335660D01*
X195446655Y-78335661D01*
X195671010Y-78350366D01*
X195671019Y-78350366D01*
X195673059Y-78350500D01*
X195826941Y-78350500D01*
X195828981Y-78350366D01*
X195828990Y-78350366D01*
X196053345Y-78335661D01*
X196053349Y-78335660D01*
X196057460Y-78335391D01*
X196061500Y-78334587D01*
X196061503Y-78334587D01*
X196355614Y-78276085D01*
X196355620Y-78276083D01*
X196359659Y-78275280D01*
X196363563Y-78273955D01*
X196363566Y-78273954D01*
X196647521Y-78177564D01*
X196647522Y-78177564D01*
X196651427Y-78176238D01*
X196838769Y-78083851D01*
X196924067Y-78041787D01*
X196924072Y-78041784D01*
X196927771Y-78039960D01*
X197183964Y-77868778D01*
X197187058Y-77866064D01*
X197187064Y-77866060D01*
X197412531Y-77668329D01*
X197415620Y-77665620D01*
X197418329Y-77662531D01*
X197616060Y-77437064D01*
X197616064Y-77437058D01*
X197618778Y-77433964D01*
X197789960Y-77177772D01*
X197926238Y-76901427D01*
X198025280Y-76609659D01*
X198083312Y-76317915D01*
X198084587Y-76311503D01*
X198084587Y-76311500D01*
X198085391Y-76307460D01*
X198105543Y-76000000D01*
X198103630Y-75970814D01*
X198085661Y-75696655D01*
X198085660Y-75696651D01*
X198085391Y-75692540D01*
X198084087Y-75685985D01*
X198026085Y-75394386D01*
X198026083Y-75394380D01*
X198025280Y-75390341D01*
X197976970Y-75248023D01*
X197927564Y-75102479D01*
X197927564Y-75102478D01*
X197926238Y-75098573D01*
X197789960Y-74822229D01*
X197618778Y-74566036D01*
X197616064Y-74562942D01*
X197616060Y-74562936D01*
X197418329Y-74337469D01*
X197415620Y-74334380D01*
X197356110Y-74282191D01*
X197187064Y-74133940D01*
X197187058Y-74133936D01*
X197183964Y-74131222D01*
X196927771Y-73960040D01*
X196924072Y-73958216D01*
X196924067Y-73958213D01*
X196774762Y-73884584D01*
X196651427Y-73823762D01*
X196384069Y-73733006D01*
X196363566Y-73726046D01*
X196363563Y-73726045D01*
X196359659Y-73724720D01*
X196355620Y-73723917D01*
X196355614Y-73723915D01*
X196061503Y-73665413D01*
X196061500Y-73665413D01*
X196057460Y-73664609D01*
X196053349Y-73664340D01*
X196053345Y-73664339D01*
X195828990Y-73649634D01*
X195828981Y-73649634D01*
X195826941Y-73649500D01*
X195673059Y-73649500D01*
X195671019Y-73649634D01*
X195671010Y-73649634D01*
X195446655Y-73664339D01*
X195446651Y-73664340D01*
X195442540Y-73664609D01*
X195438500Y-73665413D01*
X195438497Y-73665413D01*
X195144386Y-73723915D01*
X195144380Y-73723917D01*
X195140341Y-73724720D01*
X195136437Y-73726045D01*
X195136434Y-73726046D01*
X195115931Y-73733006D01*
X194848573Y-73823762D01*
X194725238Y-73884584D01*
X194575933Y-73958213D01*
X194575928Y-73958216D01*
X194572229Y-73960040D01*
X194316036Y-74131222D01*
X194312942Y-74133936D01*
X194312936Y-74133940D01*
X194143890Y-74282191D01*
X194084380Y-74334380D01*
X194081671Y-74337469D01*
X193883940Y-74562936D01*
X193883936Y-74562942D01*
X193881222Y-74566036D01*
X193710040Y-74822228D01*
X193573762Y-75098573D01*
X193572436Y-75102478D01*
X193572436Y-75102479D01*
X193523031Y-75248023D01*
X193474720Y-75390341D01*
X193473917Y-75394380D01*
X193473915Y-75394386D01*
X193415913Y-75685985D01*
X193414609Y-75692540D01*
X193414340Y-75696651D01*
X193414339Y-75696655D01*
X193396370Y-75970814D01*
X193394457Y-76000000D01*
X187005444Y-76000000D01*
X186985688Y-75685985D01*
X186926731Y-75376921D01*
X186829503Y-75077685D01*
X186827814Y-75074095D01*
X186697225Y-74796579D01*
X186697221Y-74796572D01*
X186695537Y-74792993D01*
X186526947Y-74527337D01*
X186367319Y-74334380D01*
X186328915Y-74287958D01*
X186328914Y-74287957D01*
X186326390Y-74284906D01*
X186097030Y-74069522D01*
X186063259Y-74044986D01*
X185845693Y-73886915D01*
X185845688Y-73886912D01*
X185842484Y-73884584D01*
X185566766Y-73733006D01*
X185310934Y-73631715D01*
X185277908Y-73618639D01*
X185277905Y-73618638D01*
X185274225Y-73617181D01*
X185270391Y-73616197D01*
X185270383Y-73616194D01*
X185081926Y-73567807D01*
X184969473Y-73538934D01*
X184965545Y-73538438D01*
X184965541Y-73538437D01*
X184841625Y-73522783D01*
X184657318Y-73499500D01*
X184342682Y-73499500D01*
X184158375Y-73522783D01*
X184034459Y-73538437D01*
X184034455Y-73538438D01*
X184030527Y-73538934D01*
X183918074Y-73567807D01*
X183729617Y-73616194D01*
X183729609Y-73616197D01*
X183725775Y-73617181D01*
X183722095Y-73618638D01*
X183722092Y-73618639D01*
X183689066Y-73631715D01*
X183433234Y-73733006D01*
X183157516Y-73884584D01*
X183154312Y-73886912D01*
X183154307Y-73886915D01*
X182936741Y-74044986D01*
X182902970Y-74069522D01*
X182673610Y-74284906D01*
X182671086Y-74287957D01*
X182671085Y-74287958D01*
X182632681Y-74334380D01*
X182473053Y-74527337D01*
X182304463Y-74792993D01*
X182302779Y-74796572D01*
X182302775Y-74796579D01*
X182172186Y-75074095D01*
X182170497Y-75077685D01*
X182073269Y-75376921D01*
X182014312Y-75685985D01*
X181994556Y-76000000D01*
X180400500Y-76000000D01*
X180400500Y-74042184D01*
X180389766Y-73921913D01*
X180333741Y-73726530D01*
X180239573Y-73546404D01*
X180233076Y-73538437D01*
X180115138Y-73393831D01*
X180111109Y-73388891D01*
X179953596Y-73260427D01*
X179773470Y-73166259D01*
X179578087Y-73110234D01*
X179546455Y-73107411D01*
X179460609Y-73099749D01*
X179460603Y-73099749D01*
X179457816Y-73099500D01*
X177126000Y-73099500D01*
X177057879Y-73079498D01*
X177011386Y-73025842D01*
X177000000Y-72973500D01*
X177000000Y-71660714D01*
X177020002Y-71592593D01*
X177073658Y-71546100D01*
X177126000Y-71534714D01*
X198873848Y-71534714D01*
X198941969Y-71554716D01*
G37*
%TD.AperFunction*%
%TD*%
%TA.AperFunction,Conductor*%
%TO.N,GND*%
G36*
X212942121Y-71554716D02*
G01*
X212988614Y-71608372D01*
X213000000Y-71660714D01*
X213000000Y-129407714D01*
X212979998Y-129475835D01*
X212926342Y-129522328D01*
X212874000Y-129533714D01*
X201126000Y-129533714D01*
X201057879Y-129513712D01*
X201011386Y-129460056D01*
X201000000Y-129407714D01*
X201000000Y-71660714D01*
X201020002Y-71592593D01*
X201073658Y-71546100D01*
X201126000Y-71534714D01*
X212874000Y-71534714D01*
X212942121Y-71554716D01*
G37*
%TD.AperFunction*%
%TD*%
M02*
