%TF.GenerationSoftware,KiCad,Pcbnew,(6.0.10-0)*%
%TF.CreationDate,2022-12-27T02:05:37+01:00*%
%TF.ProjectId,BMS_PDB,424d535f-5044-4422-9e6b-696361645f70,rev?*%
%TF.SameCoordinates,Original*%
%TF.FileFunction,Paste,Top*%
%TF.FilePolarity,Positive*%
%FSLAX46Y46*%
G04 Gerber Fmt 4.6, Leading zero omitted, Abs format (unit mm)*
G04 Created by KiCad (PCBNEW (6.0.10-0)) date 2022-12-27 02:05:37*
%MOMM*%
%LPD*%
G01*
G04 APERTURE LIST*
%ADD10R,0.900000X1.500000*%
%ADD11R,1.500000X0.900000*%
%ADD12R,1.050000X1.050000*%
G04 APERTURE END LIST*
D10*
%TO.C,U1*%
X88250000Y-109250000D03*
X89520000Y-109250000D03*
X90790000Y-109250000D03*
X92060000Y-109250000D03*
X93330000Y-109250000D03*
X94600000Y-109250000D03*
X95870000Y-109250000D03*
X97140000Y-109250000D03*
X98410000Y-109250000D03*
X99680000Y-109250000D03*
X100950000Y-109250000D03*
X102220000Y-109250000D03*
X103490000Y-109250000D03*
X104760000Y-109250000D03*
D11*
X106010000Y-106210000D03*
X106010000Y-104940000D03*
X106010000Y-103670000D03*
X106010000Y-102400000D03*
X106010000Y-101130000D03*
X106010000Y-99860000D03*
X106010000Y-98590000D03*
X106010000Y-97320000D03*
X106010000Y-96050000D03*
X106010000Y-94780000D03*
D10*
X104760000Y-91750000D03*
X103490000Y-91750000D03*
X102220000Y-91750000D03*
X100950000Y-91750000D03*
X99680000Y-91750000D03*
X98410000Y-91750000D03*
X97140000Y-91750000D03*
X95870000Y-91750000D03*
X94600000Y-91750000D03*
X93330000Y-91750000D03*
X92060000Y-91750000D03*
X90790000Y-91750000D03*
X89520000Y-91750000D03*
X88250000Y-91750000D03*
D12*
X97115000Y-101180000D03*
X94065000Y-102705000D03*
X97115000Y-99655000D03*
X97115000Y-102705000D03*
X95590000Y-102705000D03*
X95590000Y-101180000D03*
X94065000Y-99655000D03*
X94065000Y-101180000D03*
X95590000Y-99655000D03*
%TD*%
M02*
