%TF.GenerationSoftware,KiCad,Pcbnew,(6.0.10-0)*%
%TF.CreationDate,2022-12-27T02:05:38+01:00*%
%TF.ProjectId,BMS_PDB,424d535f-5044-4422-9e6b-696361645f70,rev?*%
%TF.SameCoordinates,Original*%
%TF.FileFunction,Soldermask,Top*%
%TF.FilePolarity,Negative*%
%FSLAX46Y46*%
G04 Gerber Fmt 4.6, Leading zero omitted, Abs format (unit mm)*
G04 Created by KiCad (PCBNEW (6.0.10-0)) date 2022-12-27 02:05:38*
%MOMM*%
%LPD*%
G01*
G04 APERTURE LIST*
G04 Aperture macros list*
%AMRoundRect*
0 Rectangle with rounded corners*
0 $1 Rounding radius*
0 $2 $3 $4 $5 $6 $7 $8 $9 X,Y pos of 4 corners*
0 Add a 4 corners polygon primitive as box body*
4,1,4,$2,$3,$4,$5,$6,$7,$8,$9,$2,$3,0*
0 Add four circle primitives for the rounded corners*
1,1,$1+$1,$2,$3*
1,1,$1+$1,$4,$5*
1,1,$1+$1,$6,$7*
1,1,$1+$1,$8,$9*
0 Add four rect primitives between the rounded corners*
20,1,$1+$1,$2,$3,$4,$5,0*
20,1,$1+$1,$4,$5,$6,$7,0*
20,1,$1+$1,$6,$7,$8,$9,0*
20,1,$1+$1,$8,$9,$2,$3,0*%
G04 Aperture macros list end*
%ADD10RoundRect,0.250000X-0.725000X0.600000X-0.725000X-0.600000X0.725000X-0.600000X0.725000X0.600000X0*%
%ADD11O,1.950000X1.700000*%
%ADD12C,2.700000*%
%ADD13C,3.000000*%
%ADD14C,8.000000*%
%ADD15C,4.400000*%
%ADD16RoundRect,0.250000X-0.600000X-0.725000X0.600000X-0.725000X0.600000X0.725000X-0.600000X0.725000X0*%
%ADD17O,1.700000X1.950000*%
%ADD18R,3.800000X3.800000*%
%ADD19C,3.800000*%
%ADD20RoundRect,1.500000X-1.500000X1.500000X-1.500000X-1.500000X1.500000X-1.500000X1.500000X1.500000X0*%
%ADD21C,6.000000*%
%ADD22R,0.900000X1.500000*%
%ADD23R,1.500000X0.900000*%
%ADD24C,0.475000*%
%ADD25R,4.200000X4.200000*%
G04 APERTURE END LIST*
D10*
%TO.C,J9*%
X94000000Y-119000000D03*
D11*
X94000000Y-121500000D03*
X94000000Y-124000000D03*
X94000000Y-126500000D03*
%TD*%
D12*
%TO.C,F2*%
X195750000Y-116000000D03*
D13*
X207000000Y-116000000D03*
X184500000Y-116000000D03*
%TD*%
D14*
%TO.C,J1*%
X207000000Y-126000000D03*
D15*
X207000000Y-126000000D03*
%TD*%
D16*
%TO.C,J10*%
X143000000Y-121000000D03*
D17*
X145500000Y-121000000D03*
X148000000Y-121000000D03*
X150500000Y-121000000D03*
%TD*%
D12*
%TO.C,F3*%
X195750000Y-96000000D03*
D13*
X207000000Y-96000000D03*
X184500000Y-96000000D03*
%TD*%
D18*
%TO.C,J6*%
X177500000Y-86000000D03*
D19*
X172500000Y-86000000D03*
%TD*%
D18*
%TO.C,J4*%
X177500000Y-116000000D03*
D19*
X172500000Y-116000000D03*
%TD*%
D18*
%TO.C,J5*%
X177500000Y-96000000D03*
D19*
X172500000Y-96000000D03*
%TD*%
D20*
%TO.C,J8*%
X161000000Y-84000000D03*
D21*
X161000000Y-91200000D03*
%TD*%
D15*
%TO.C,J2*%
X161000000Y-74930000D03*
D14*
X161000000Y-74930000D03*
%TD*%
D22*
%TO.C,U1*%
X88250000Y-109250000D03*
X89520000Y-109250000D03*
X90790000Y-109250000D03*
X92060000Y-109250000D03*
X93330000Y-109250000D03*
X94600000Y-109250000D03*
X95870000Y-109250000D03*
X97140000Y-109250000D03*
X98410000Y-109250000D03*
X99680000Y-109250000D03*
X100950000Y-109250000D03*
X102220000Y-109250000D03*
X103490000Y-109250000D03*
X104760000Y-109250000D03*
D23*
X106010000Y-106210000D03*
X106010000Y-104940000D03*
X106010000Y-103670000D03*
X106010000Y-102400000D03*
X106010000Y-101130000D03*
X106010000Y-99860000D03*
X106010000Y-98590000D03*
X106010000Y-97320000D03*
X106010000Y-96050000D03*
X106010000Y-94780000D03*
D22*
X104760000Y-91750000D03*
X103490000Y-91750000D03*
X102220000Y-91750000D03*
X100950000Y-91750000D03*
X99680000Y-91750000D03*
X98410000Y-91750000D03*
X97140000Y-91750000D03*
X95870000Y-91750000D03*
X94600000Y-91750000D03*
X93330000Y-91750000D03*
X92060000Y-91750000D03*
X90790000Y-91750000D03*
X89520000Y-91750000D03*
X88250000Y-91750000D03*
D24*
X95590000Y-100417500D03*
X94827500Y-102705000D03*
X96352500Y-99655000D03*
X97115000Y-101942500D03*
X96352500Y-101180000D03*
X94827500Y-99655000D03*
X94065000Y-101942500D03*
X97115000Y-100417500D03*
X94827500Y-101180000D03*
X94065000Y-100417500D03*
X96352500Y-102705000D03*
X95590000Y-101942500D03*
D25*
X95590000Y-101180000D03*
%TD*%
D12*
%TO.C,F1*%
X195750000Y-106000000D03*
D13*
X207000000Y-106000000D03*
X184500000Y-106000000D03*
%TD*%
D12*
%TO.C,F5*%
X195750000Y-76000000D03*
D13*
X207000000Y-76000000D03*
X184500000Y-76000000D03*
%TD*%
D18*
%TO.C,J3*%
X177500000Y-106000000D03*
D19*
X172500000Y-106000000D03*
%TD*%
D12*
%TO.C,F4*%
X195750000Y-86000000D03*
D13*
X207000000Y-86000000D03*
X184500000Y-86000000D03*
%TD*%
D18*
%TO.C,J7*%
X177500000Y-76000000D03*
D19*
X172500000Y-76000000D03*
%TD*%
M02*
